<svg width="28" height="28" viewBox="0 0 28 28" fill="none" xmlns="http://www.w3.org/2000/svg">
<rect width="28" height="28" rx="8" fill="black" fill-opacity="0.05"/>
<path d="M8.39062 12.125C8.38956 11.384 8.53513 10.6502 8.81894 9.96572C9.10275 9.28125 9.51917 8.65972 10.0441 8.13688C10.5691 7.61404 11.1924 7.20022 11.878 6.91927C12.5638 6.63835 13.2982 6.49583 14.0391 6.49995C17.1328 6.52341 19.6093 9.09372 19.6093 12.1953V12.75C19.6093 15.5469 20.1953 17.1718 20.7109 18.0625C20.7657 18.1573 20.7946 18.2649 20.7946 18.3744C20.7948 18.4839 20.7661 18.5916 20.7115 18.6865C20.6569 18.7814 20.5783 18.8604 20.4837 18.9154C20.3889 18.9704 20.2813 18.9996 20.1719 19H7.82819C7.71863 18.9996 7.61105 18.9704 7.51645 18.9154C7.42169 18.8604 7.34311 18.7814 7.28848 18.6865C7.23386 18.5916 7.20517 18.4839 7.20532 18.3744C7.20547 18.2649 7.23431 18.1573 7.28909 18.0625C7.80469 17.1718 8.39062 15.5469 8.39062 12.75V12.125Z" fill="black" fill-opacity="0.1"/>
<path fill-rule="evenodd" clip-rule="evenodd" d="M7.76562 12.7499V12.1249C7.76562 12.1249 7.76387 10.8785 8.24158 9.72632C8.24158 9.72632 8.71929 8.57413 9.6031 7.69398C9.6031 7.69398 10.4869 6.81384 11.6411 6.34093C11.6411 6.34093 12.7953 5.86801 14.0425 5.87495C14.0425 5.87495 15.3108 5.88456 16.4657 6.39122C16.4657 6.39122 17.5768 6.87869 18.4322 7.75733C18.4322 7.75733 19.2842 8.63254 19.7515 9.76109C19.7515 9.76109 20.2344 10.9272 20.2344 12.1953V12.7499C20.2344 12.7499 20.2344 15.9919 21.2518 17.7493C21.2518 17.7493 21.4194 18.0395 21.4197 18.3738C21.4197 18.3738 21.42 18.7082 21.2533 18.998C21.2533 18.998 21.0866 19.2879 20.7975 19.4558C20.7975 19.4558 20.5084 19.6238 20.1741 19.6249L7.82812 19.6249C7.82812 19.6249 7.49157 19.6238 7.20246 19.4558C7.20246 19.4558 6.91335 19.2879 6.74669 18.998C6.74669 18.998 6.58003 18.7082 6.58032 18.3738C6.58032 18.3738 6.58062 18.0395 6.7478 17.7499C6.7478 17.7499 7.76562 15.9919 7.76562 12.7499ZM9.01562 12.7499C9.01562 12.7499 9.01562 16.3276 7.83032 18.3749L20.1697 18.3749C20.1697 18.3749 18.9844 16.3271 18.9844 12.7499V12.1953C18.9844 12.1953 18.9844 10.1165 17.5365 8.62928C17.5365 8.62928 16.0871 7.14048 14.0356 7.12493C14.0356 7.12493 13.0381 7.11938 12.115 7.4976C12.115 7.4976 11.192 7.87581 10.4851 8.5797C10.4851 8.5797 9.77831 9.2836 9.39627 10.2051C9.39627 10.2051 9.01422 11.1265 9.01562 12.1249V12.7499Z" fill="#1C1C1C"/>
<path d="M17.125 19.625V19C17.125 18.6548 16.8452 18.375 16.5 18.375C16.1548 18.375 15.875 18.6548 15.875 19V19.625C15.875 20.4016 15.3258 20.9508 15.3258 20.9508C14.7766 21.5 14 21.5 14 21.5C13.2234 21.5 12.6742 20.9508 12.6742 20.9508C12.125 20.4016 12.125 19.625 12.125 19.625V19C12.125 18.6548 11.8452 18.375 11.5 18.375C11.1548 18.375 10.875 18.6548 10.875 19L10.875 19.625C10.875 20.9194 11.7903 21.8347 11.7903 21.8347C12.7056 22.75 14 22.75 14 22.75C15.2944 22.75 16.2097 21.8347 16.2097 21.8347C17.125 20.9194 17.125 19.625 17.125 19.625Z" fill="#1C1C1C"/>
</svg>
