<svg width="29" height="32" viewBox="0 0 29 32" fill="none" xmlns="http://www.w3.org/2000/svg">
<path d="M14.2031 0C14.6855 0 15.0766 0.384657 15.0766 0.859155V6.49195L18.1418 3.47699C18.4829 3.14147 19.0359 3.14147 19.377 3.47699C19.7181 3.81251 19.7181 4.3565 19.377 4.69202L15.0766 8.922V14.5103L20.0045 11.7118L21.5765 5.94107C21.7014 5.48274 22.1803 5.21075 22.6463 5.33356C23.1123 5.45637 23.3888 5.92747 23.2639 6.3858L22.144 10.4968L27.0986 7.68315C27.5164 7.4459 28.0506 7.58669 28.2918 7.99762C28.533 8.40855 28.3899 8.934 27.9721 9.17125L23.0127 11.9876L27.1998 13.0912C27.6658 13.214 27.9423 13.6851 27.8174 14.1434C27.6926 14.6018 27.2136 14.8738 26.7477 14.751L20.8731 13.2027L15.9528 15.9968L20.8807 18.7953L26.7476 17.2491C27.2136 17.1262 27.6926 17.3982 27.8174 17.8566C27.9423 18.3149 27.6658 18.786 27.1998 18.9088L23.0203 20.0103L27.9749 22.824C28.3927 23.0612 28.5358 23.5867 28.2946 23.9976C28.0534 24.4086 27.5192 24.5493 27.1014 24.3121L22.142 21.4957L23.2639 25.6142C23.3888 26.0725 23.1122 26.5436 22.6463 26.6664C22.1803 26.7893 21.7014 26.5173 21.5765 26.0589L20.0024 20.2807L15.0766 17.4833V23.0921L19.377 27.3221C19.7181 27.6576 19.7181 28.2016 19.377 28.5371C19.0359 28.8726 18.4829 28.8726 18.1418 28.5371L15.0766 25.5221V31.1408C15.0766 31.6153 14.6855 32 14.2031 32C13.7207 32 13.3296 31.6153 13.3296 31.1408V25.5276L10.27 28.5371C9.9289 28.8726 9.37585 28.8726 9.03474 28.5371C8.69363 28.2016 8.69363 27.6576 9.03474 27.3221L13.3296 23.0976V17.4865L8.39695 20.2877L6.82287 26.066C6.69801 26.5243 6.21905 26.7963 5.75308 26.6735C5.28712 26.5507 5.01059 26.0796 5.13545 25.6212L6.25738 21.5027L1.31035 24.3121C0.892578 24.5493 0.358372 24.4086 0.117169 23.9976C-0.124034 23.5867 0.0191059 23.0612 0.436882 22.824L5.37908 20.0174L1.19957 18.9159C0.733605 18.793 0.457079 18.3219 0.581935 17.8636C0.706791 17.4053 1.18575 17.1333 1.65172 17.2561L7.51864 18.8024L12.4589 15.9968L7.52626 13.1956L1.65171 14.7439C1.18574 14.8667 0.706786 14.5947 0.58193 14.1364C0.457074 13.6781 0.733601 13.207 1.19957 13.0841L5.3867 11.9806L0.439672 9.17125C0.0218955 8.934 -0.121244 8.40855 0.119959 7.99762C0.361162 7.58669 0.895368 7.4459 1.31314 7.68315L6.25534 10.4898L5.13544 6.37876C5.01059 5.92043 5.28711 5.44932 5.75308 5.32651C6.21905 5.2037 6.69801 5.4757 6.82286 5.93403L8.3949 11.7048L13.3296 14.5071V8.91651L9.03474 4.69202C8.69363 4.3565 8.69363 3.81251 9.03474 3.47699C9.37585 3.14147 9.9289 3.14147 10.27 3.47699L13.3296 6.48645V0.859155C13.3296 0.384657 13.7207 0 14.2031 0Z" fill="#95A4FC"/>
</svg>
