<svg width="17" height="16" viewBox="0 0 17 19" fill="none" xmlns="http://www.w3.org/2000/svg">
<path d="M8.38659 0C8.67144 0 8.90235 0.22839 8.90235 0.510123V3.85459L10.7123 2.06446C10.9137 1.86525 11.2403 1.86525 11.4417 2.06446C11.6431 2.26368 11.6431 2.58667 11.4417 2.78589L8.90235 5.29744V8.6155L11.8122 6.9539L12.7404 3.52751C12.8141 3.25538 13.0969 3.09388 13.3721 3.1668C13.6472 3.23972 13.8105 3.51944 13.7368 3.79157L13.0755 6.23247L16.0011 4.56187C16.2478 4.421 16.5632 4.5046 16.7056 4.74859C16.8481 4.99258 16.7635 5.30456 16.5169 5.44543L13.5884 7.11766L16.0608 7.7729C16.336 7.84581 16.4993 8.12553 16.4255 8.39767C16.3518 8.6698 16.069 8.8313 15.7938 8.75838L12.3251 7.83909L9.41977 9.49812L12.3296 11.1597L15.7938 10.2416C16.069 10.1687 16.3518 10.3302 16.4255 10.6023C16.4993 10.8745 16.336 11.1542 16.0608 11.2271L13.5929 11.8811L16.5185 13.5517C16.7652 13.6926 16.8497 14.0046 16.7073 14.2486C16.5649 14.4926 16.2494 14.5762 16.0027 14.4353L13.0743 12.7631L13.7368 15.2084C13.8105 15.4806 13.6472 15.7603 13.3721 15.8332C13.0969 15.9061 12.8141 15.7446 12.7404 15.4725L11.811 12.0416L8.90235 10.3807V13.7109L11.4417 16.2225C11.6431 16.4217 11.6431 16.7447 11.4417 16.9439C11.2403 17.1431 10.9137 17.1431 10.7123 16.9439L8.90235 15.1538V18.4899C8.90235 18.7716 8.67144 19 8.38659 19C8.10174 19 7.87082 18.7716 7.87082 18.4899V15.157L6.0642 16.9439C5.86278 17.1431 5.53622 17.1431 5.3348 16.9439C5.13338 16.7447 5.13338 16.4217 5.3348 16.2225L7.87082 13.7142V10.3826L4.9582 12.0458L4.02874 15.4767C3.95501 15.7488 3.6722 15.9103 3.39706 15.8374C3.12192 15.7645 2.95863 15.4847 3.03236 15.2126L3.69484 12.7673L0.773733 14.4353C0.527046 14.5762 0.21161 14.4926 0.0691856 14.2486C-0.0732389 14.0046 0.0112816 13.6926 0.257969 13.5517L3.17622 11.8853L0.708319 11.2313C0.433176 11.1584 0.269894 10.8786 0.343619 10.6065C0.417343 10.3344 0.700156 10.1729 0.975299 10.2458L4.43958 11.1639L7.35671 9.49812L4.44408 7.8349L0.975296 8.7542C0.700153 8.82711 0.41734 8.66562 0.343616 8.39348C0.269892 8.12135 0.433174 7.84163 0.708317 7.76871L3.18072 7.11348L0.259616 5.44543C0.0129288 5.30456 -0.0715916 4.99257 0.0708329 4.74859C0.213257 4.5046 0.528694 4.421 0.775381 4.56187L3.69363 6.22829L3.03236 3.78739C2.95863 3.51525 3.12191 3.23554 3.39706 3.16262C3.6722 3.0897 3.95501 3.2512 4.02874 3.52333L4.95699 6.94971L7.87082 8.61362V5.29418L5.3348 2.78589C5.13338 2.58667 5.13338 2.26368 5.3348 2.06446C5.53622 1.86525 5.86278 1.86525 6.0642 2.06446L7.87082 3.85133V0.510123C7.87082 0.22839 8.10174 0 8.38659 0Z" fill="black" fill-opacity="0.4"/>
</svg>
