<svg width="28" height="28" viewBox="0 0 28 28" fill="none" xmlns="http://www.w3.org/2000/svg">
<path d="M7.125 20.25C6.95921 20.25 6.80029 20.1842 6.68303 20.067C6.56584 19.9497 6.5 19.7908 6.5 19.625V8.375C6.5 8.20921 6.56584 8.05029 6.68303 7.93303C6.80029 7.81584 6.95921 7.75 7.125 7.75H10.875V20.25H7.125Z" fill="black" fill-opacity="0.1"/>
<path d="M10.25 7.75V20.25C10.25 20.5952 10.5298 20.875 10.875 20.875C11.2202 20.875 11.5 20.5952 11.5 20.25V7.75C11.5 7.40482 11.2202 7.125 10.875 7.125C10.5298 7.125 10.25 7.40482 10.25 7.75Z" fill="#1C1C1C"/>
<path fill-rule="evenodd" clip-rule="evenodd" d="M5.875 8.375C5.875 8.375 5.875 7.85723 6.24112 7.49112C6.24112 7.49112 6.60723 7.125 7.125 7.125H20.875C20.875 7.125 21.3928 7.125 21.7589 7.49112C21.7589 7.49112 22.125 7.85723 22.125 8.375V19.625C22.125 19.625 22.125 20.1428 21.7589 20.5089C21.7589 20.5089 21.3928 20.875 20.875 20.875H7.125C7.125 20.875 6.60723 20.875 6.24112 20.5089C6.24112 20.5089 5.875 20.1428 5.875 19.625V8.375ZM7.125 8.375V19.625H20.875V8.375H7.125Z" fill="#1C1C1C"/>
<path d="M6.5 10.875H8.375C8.72018 10.875 9 10.5952 9 10.25C9 9.90482 8.72018 9.625 8.375 9.625H6.5C6.15482 9.625 5.875 9.90482 5.875 10.25C5.875 10.5952 6.15482 10.875 6.5 10.875Z" fill="#1C1C1C"/>
<path d="M6.5 13.375H8.375C8.72018 13.375 9 13.0952 9 12.75C9 12.4048 8.72018 12.125 8.375 12.125H6.5C6.15482 12.125 5.875 12.4048 5.875 12.75C5.875 13.0952 6.15482 13.375 6.5 13.375Z" fill="#1C1C1C"/>
<path d="M6.5 15.875H8.375C8.72018 15.875 9 15.5952 9 15.25C9 14.9048 8.72018 14.625 8.375 14.625H6.5C6.15482 14.625 5.875 14.9048 5.875 15.25C5.875 15.5952 6.15482 15.875 6.5 15.875Z" fill="#1C1C1C"/>
</svg>
