<svg width="28" height="28" viewBox="0 0 28 28" fill="none" xmlns="http://www.w3.org/2000/svg">
<path d="M20.875 14C20.875 17.7969 17.797 20.875 14 20.875C10.203 20.875 7.125 17.7969 7.125 14C7.125 10.2031 10.203 7.125 14 7.125C17.797 7.125 20.875 10.2031 20.875 14Z" fill="black" fill-opacity="0.1"/>
<path d="M13.375 10.25V14C13.375 14.3452 13.6548 14.625 14 14.625C14.3452 14.625 14.625 14.3452 14.625 14V10.25C14.625 9.90482 14.3452 9.625 14 9.625C13.6548 9.625 13.375 9.90482 13.375 10.25Z" fill="#1C1C1C"/>
<path d="M14.3124 13.4587L17.5623 15.3336C17.7451 15.4391 17.8623 15.6295 17.874 15.8402C17.8747 15.8518 17.875 15.8634 17.875 15.875C17.875 15.9846 17.8462 16.0924 17.7914 16.1873C17.6859 16.3701 17.4955 16.4873 17.2848 16.499C17.2732 16.4997 17.2616 16.5 17.25 16.5C17.1404 16.5 17.0326 16.4712 16.9377 16.4164L13.6878 14.5414C13.5472 14.4603 13.4437 14.3279 13.3991 14.172L13.3963 14.162C13.3822 14.1091 13.375 14.0547 13.375 14C13.375 13.9001 13.3989 13.8017 13.4448 13.7129C13.4492 13.7044 13.4538 13.696 13.4586 13.6877C13.5397 13.5472 13.6721 13.4437 13.828 13.3991L13.838 13.3963C13.8909 13.3822 13.9453 13.375 14 13.375C14.0999 13.375 14.1983 13.3989 14.2871 13.4448C14.2956 13.4492 14.304 13.4538 14.3124 13.4587Z" fill="#1C1C1C"/>
<path d="M7.10937 11.1641V8.66406C7.10937 8.31888 6.82955 8.03906 6.48437 8.03906C6.1392 8.03906 5.85938 8.31888 5.85938 8.66406V11.7891C5.85938 12.1342 6.1392 12.4141 6.48437 12.4141H9.60938C9.95455 12.4141 10.2344 12.1342 10.2344 11.7891C10.2344 11.4439 9.95455 11.1641 9.60938 11.1641H7.10937Z" fill="#1C1C1C"/>
<path d="M8.69933 8.69804L6.04308 11.3465C5.92548 11.4637 5.85938 11.623 5.85938 11.7891C5.85938 11.7995 5.85964 11.81 5.86017 11.8205C5.86794 11.9749 5.93264 12.1209 6.04178 12.2304C6.15905 12.348 6.3183 12.4141 6.48438 12.4141C6.49485 12.4141 6.50533 12.4138 6.51579 12.4133C6.67018 12.4055 6.8162 12.3408 6.92567 12.2317L6.92602 12.2313L9.58192 9.58322C10.9231 8.24098 12.7828 7.87047 12.7828 7.87047C14.6425 7.49996 16.3946 8.22527 16.3946 8.22527C18.1466 8.95058 19.2003 10.5272 19.2003 10.5272C20.254 12.1037 20.254 14 20.254 14C20.254 15.8963 19.2003 17.4728 19.2003 17.4728C18.1466 19.0494 16.3946 19.7747 16.3946 19.7747C14.6425 20.5001 12.7828 20.1295 12.7828 20.1295C10.9231 19.759 9.58275 18.4176 9.58275 18.4176C9.46552 18.3003 9.30648 18.2344 9.14063 18.2344C9.12993 18.2344 9.11923 18.2347 9.10854 18.2352C8.95417 18.2431 8.80821 18.308 8.69886 18.4173C8.58161 18.5344 8.51569 18.6934 8.51562 18.8591L8.51563 18.8594C8.51562 18.8693 8.51586 18.8792 8.51633 18.8891C8.52373 19.0443 8.58868 19.1912 8.6985 19.3011L8.69868 19.3013C10.307 20.9109 12.5385 21.3554 12.5385 21.3554C14.7702 21.8001 16.8727 20.9297 16.8727 20.9297C18.9752 20.0593 20.2396 18.1674 20.2396 18.1674C21.504 16.2755 21.504 14 21.504 14C21.504 11.7245 20.2396 9.83259 20.2396 9.83259C18.9752 7.9407 16.8727 7.07032 16.8727 7.07032C14.7702 6.19995 12.5385 6.64456 12.5385 6.64456C10.3069 7.08918 8.69933 8.69804 8.69933 8.69804Z" fill="#1C1C1C"/>
</svg>
