<svg width="14" height="14" viewBox="0 0 14 14" fill="none" xmlns="http://www.w3.org/2000/svg">
<path d="M13.35 13.3563C13.2566 13.4482 13.131 13.4998 13 13.5C12.8672 13.4994 12.7397 13.448 12.6437 13.3563L9.94372 10.65C8.80659 11.6051 7.34462 12.0844 5.86273 11.9878C4.38083 11.8912 2.99343 11.2263 1.98988 10.1316C0.986331 9.03701 0.444121 7.5972 0.476333 6.11251C0.508545 4.62782 1.11269 3.21289 2.16277 2.16281C3.21286 1.11272 4.62779 0.508576 6.11248 0.476363C7.59717 0.444151 9.03698 0.986362 10.1316 1.98991C11.2263 2.99346 11.8912 4.38086 11.9878 5.86276C12.0844 7.34465 11.6051 8.80662 10.65 9.94376L13.35 12.6438C13.3972 12.6903 13.4347 12.7457 13.4603 12.8069C13.486 12.8681 13.4991 12.9337 13.4991 13C13.4991 13.0663 13.486 13.132 13.4603 13.1931C13.4347 13.2543 13.3972 13.3097 13.35 13.3563ZM6.24997 11C7.18944 11 8.1078 10.7214 8.88893 10.1995C9.67007 9.67755 10.2789 8.9357 10.6384 8.06775C10.9979 7.1998 11.092 6.24474 10.9087 5.32333C10.7254 4.40192 10.273 3.55555 9.60873 2.89125C8.94443 2.22695 8.09806 1.77456 7.17665 1.59128C6.25524 1.408 5.30018 1.50206 4.43223 1.86158C3.56428 2.22109 2.82243 2.82991 2.30049 3.61105C1.77856 4.39218 1.49997 5.31054 1.49997 6.25001C1.50163 7.50928 2.0026 8.7165 2.89304 9.60694C3.78348 10.4974 4.9907 10.9984 6.24997 11Z" fill="black" fill-opacity="0.2"/>
</svg>
