<svg width="310" height="320" viewBox="0 0 310 320" fill="none" xmlns="http://www.w3.org/2000/svg">
<g clip-path="url(#clip0_1928_17683)">
<rect width="310" height="320" rx="16" fill="#F7F9FB"/>
<path d="M24.5568 26.3643V24.8182H32.6804V26.3643H29.5334V35H27.7038V26.3643H24.5568ZM36.3904 35.1491C35.6447 35.1491 34.9984 34.9851 34.4515 34.657C33.9047 34.3288 33.4804 33.8698 33.1788 33.2798C32.8805 32.6899 32.7314 32.0005 32.7314 31.2116C32.7314 30.4228 32.8805 29.7318 33.1788 29.1385C33.4804 28.5452 33.9047 28.0845 34.4515 27.7564C34.9984 27.4283 35.6447 27.2642 36.3904 27.2642C37.1362 27.2642 37.7825 27.4283 38.3294 27.7564C38.8762 28.0845 39.2988 28.5452 39.5971 29.1385C39.8987 29.7318 40.0495 30.4228 40.0495 31.2116C40.0495 32.0005 39.8987 32.6899 39.5971 33.2798C39.2988 33.8698 38.8762 34.3288 38.3294 34.657C37.7825 34.9851 37.1362 35.1491 36.3904 35.1491ZM36.4004 33.7074C36.8047 33.7074 37.1428 33.5964 37.4146 33.3743C37.6864 33.1489 37.8886 32.8473 38.0211 32.4695C38.157 32.0916 38.225 31.6707 38.225 31.2067C38.225 30.7393 38.157 30.3168 38.0211 29.9389C37.8886 29.5578 37.6864 29.2545 37.4146 29.0291C37.1428 28.8037 36.8047 28.6911 36.4004 28.6911C35.9861 28.6911 35.6414 28.8037 35.3663 29.0291C35.0945 29.2545 34.8907 29.5578 34.7548 29.9389C34.6222 30.3168 34.5559 30.7393 34.5559 31.2067C34.5559 31.6707 34.6222 32.0916 34.7548 32.4695C34.8907 32.8473 35.0945 33.1489 35.3663 33.3743C35.6414 33.5964 35.9861 33.7074 36.4004 33.7074ZM45.3903 27.3636V28.7557H41.0004V27.3636H45.3903ZM42.0842 25.5341H43.8839V32.7031C43.8839 32.9451 43.9203 33.1307 43.9933 33.2599C44.0695 33.3859 44.1689 33.4721 44.2915 33.5185C44.4142 33.5649 44.5501 33.5881 44.6992 33.5881C44.8119 33.5881 44.9147 33.5798 45.0075 33.5632C45.1036 33.5466 45.1765 33.5317 45.2262 33.5185L45.5295 34.9254C45.4334 34.9586 45.2958 34.995 45.1168 35.0348C44.9412 35.0746 44.7257 35.0978 44.4705 35.1044C44.0198 35.1177 43.6138 35.0497 43.2525 34.9006C42.8912 34.7481 42.6045 34.5128 42.3924 34.1946C42.1836 33.8764 42.0808 33.4787 42.0842 33.0014V25.5341ZM49.0929 35.1541C48.609 35.1541 48.1731 35.0679 47.7853 34.8956C47.4009 34.7199 47.0959 34.4614 46.8706 34.12C46.6485 33.7786 46.5375 33.3577 46.5375 32.8572C46.5375 32.4264 46.617 32.0701 46.7761 31.7884C46.9352 31.5066 47.1523 31.2812 47.4274 31.1122C47.7025 30.9432 48.0124 30.8156 48.3571 30.7294C48.7051 30.6399 49.0647 30.5753 49.4359 30.5355C49.8833 30.4891 50.2463 30.4477 50.5247 30.4112C50.8031 30.3714 51.0053 30.3118 51.1312 30.2322C51.2605 30.1494 51.3251 30.0218 51.3251 29.8494V29.8196C51.3251 29.4451 51.2141 29.1551 50.992 28.9496C50.7699 28.7441 50.4501 28.6413 50.0325 28.6413C49.5917 28.6413 49.242 28.7375 48.9835 28.9297C48.7283 29.1219 48.5559 29.349 48.4664 29.6108L46.786 29.3722C46.9186 28.9081 47.1374 28.5204 47.4423 28.2088C47.7472 27.8939 48.1201 27.6586 48.5609 27.5028C49.0017 27.3438 49.4889 27.2642 50.0225 27.2642C50.3904 27.2642 50.7567 27.3073 51.1213 27.3935C51.4859 27.4796 51.819 27.6222 52.1206 27.821C52.4222 28.0166 52.6641 28.2834 52.8464 28.6214C53.032 28.9595 53.1248 29.3821 53.1248 29.8892V35H51.3947V33.951H51.335C51.2257 34.1631 51.0716 34.362 50.8727 34.5476C50.6771 34.7299 50.4302 34.8774 50.1319 34.9901C49.8369 35.0994 49.4906 35.1541 49.0929 35.1541ZM49.5602 33.8317C49.9215 33.8317 50.2347 33.7604 50.4998 33.6179C50.765 33.4721 50.9688 33.2798 51.1113 33.0412C51.2572 32.8026 51.3301 32.5424 51.3301 32.2607V31.3608C51.2737 31.4072 51.1776 31.4503 51.0417 31.4901C50.9092 31.5298 50.76 31.5646 50.5943 31.5945C50.4286 31.6243 50.2645 31.6508 50.1021 31.674C49.9397 31.6972 49.7988 31.7171 49.6795 31.7337C49.411 31.7701 49.1708 31.8298 48.9586 31.9126C48.7465 31.9955 48.5791 32.1115 48.4565 32.2607C48.3339 32.4065 48.2725 32.5954 48.2725 32.8274C48.2725 33.1589 48.3935 33.4091 48.6355 33.5781C48.8774 33.7472 49.1857 33.8317 49.5602 33.8317ZM56.7342 24.8182V35H54.9345V24.8182H56.7342ZM68.5554 24.8182H70.3999V31.4702C70.3999 32.1993 70.2275 32.8407 69.8828 33.3942C69.5414 33.9477 69.0608 34.3802 68.4411 34.6918C67.8213 35 67.0971 35.1541 66.2685 35.1541C65.4366 35.1541 64.7107 35 64.0909 34.6918C63.4711 34.3802 62.9905 33.9477 62.6491 33.3942C62.3078 32.8407 62.1371 32.1993 62.1371 31.4702V24.8182H63.9815V31.3161C63.9815 31.7403 64.0743 32.1181 64.2599 32.4496C64.4489 32.781 64.714 33.0412 65.0554 33.2301C65.3968 33.4157 65.8011 33.5085 66.2685 33.5085C66.7358 33.5085 67.1402 33.4157 67.4815 33.2301C67.8262 33.0412 68.0914 32.781 68.277 32.4496C68.4626 32.1181 68.5554 31.7403 68.5554 31.3161V24.8182ZM78.3606 29.3821L76.72 29.5611C76.6736 29.3954 76.5924 29.2396 76.4764 29.0938C76.3637 28.9479 76.2112 28.8303 76.019 28.7408C75.8268 28.6513 75.5914 28.6065 75.313 28.6065C74.9385 28.6065 74.6236 28.6877 74.3684 28.8501C74.1165 29.0125 73.9922 29.223 73.9956 29.4815C73.9922 29.7036 74.0734 29.8842 74.2392 30.0234C74.4082 30.1626 74.6866 30.277 75.0744 30.3665L76.377 30.6449C77.0995 30.8007 77.6364 31.0476 77.9877 31.3857C78.3424 31.7237 78.5214 32.1662 78.5247 32.7131C78.5214 33.1937 78.3805 33.6179 78.1021 33.9858C77.827 34.3504 77.4442 34.6354 76.9537 34.8409C76.4631 35.0464 75.8997 35.1491 75.2633 35.1491C74.3287 35.1491 73.5763 34.9536 73.0062 34.5625C72.4361 34.1681 72.0964 33.6196 71.987 32.9169L73.742 32.7479C73.8216 33.0926 73.9906 33.3527 74.2491 33.5284C74.5076 33.7041 74.844 33.7919 75.2583 33.7919C75.6859 33.7919 76.0289 33.7041 76.2875 33.5284C76.5493 33.3527 76.6802 33.1357 76.6802 32.8771C76.6802 32.6584 76.5957 32.4777 76.4267 32.3352C76.2609 32.1927 76.0024 32.0833 75.6511 32.0071L74.3485 31.7337C73.6161 31.5812 73.0742 31.3243 72.7228 30.9631C72.3715 30.5985 72.1975 30.1378 72.2008 29.581C72.1975 29.1103 72.3251 28.7027 72.5836 28.358C72.8455 28.0099 73.2084 27.7415 73.6724 27.5526C74.1397 27.3603 74.6783 27.2642 75.2882 27.2642C76.1831 27.2642 76.8874 27.4548 77.4011 27.8359C77.9181 28.2171 78.238 28.7325 78.3606 29.3821ZM83.3894 35.1491C82.6238 35.1491 81.9625 34.9901 81.4057 34.6719C80.8522 34.3504 80.4263 33.8963 80.128 33.3097C79.8297 32.7197 79.6806 32.0253 79.6806 31.2266C79.6806 30.4411 79.8297 29.7517 80.128 29.1584C80.4296 28.5618 80.8506 28.0978 81.3908 27.7663C81.931 27.4316 82.5658 27.2642 83.2949 27.2642C83.7656 27.2642 84.2097 27.3404 84.6273 27.4929C85.0482 27.642 85.4194 27.8741 85.7409 28.1889C86.0658 28.5038 86.321 28.9048 86.5066 29.392C86.6922 29.8759 86.785 30.4527 86.785 31.1222V31.674H80.5257V30.4609H85.0598C85.0565 30.1162 84.9819 29.8097 84.8361 29.5412C84.6903 29.2694 84.4864 29.0556 84.2246 28.8999C83.9661 28.7441 83.6645 28.6662 83.3198 28.6662C82.9519 28.6662 82.6287 28.7557 82.3503 28.9347C82.0719 29.1103 81.8548 29.3423 81.699 29.6307C81.5466 29.9157 81.4687 30.2289 81.4654 30.5703V31.6293C81.4654 32.0734 81.5466 32.4545 81.709 32.7727C81.8714 33.0876 82.0984 33.3295 82.3901 33.4986C82.6818 33.6643 83.0231 33.7472 83.4142 33.7472C83.6761 33.7472 83.9131 33.7107 84.1252 33.6378C84.3373 33.5616 84.5212 33.4505 84.677 33.3047C84.8328 33.1589 84.9505 32.9782 85.03 32.7628L86.7104 32.9517C86.6043 33.3958 86.4022 33.7836 86.1039 34.1151C85.8089 34.4432 85.431 34.6984 84.9703 34.8807C84.5096 35.0597 83.9827 35.1491 83.3894 35.1491ZM88.3075 35V27.3636H90.0526V28.6364H90.1321C90.2713 28.1955 90.5099 27.8558 90.848 27.6172C91.1894 27.3752 91.5788 27.2543 92.0163 27.2543C92.1158 27.2543 92.2268 27.2592 92.3494 27.2692C92.4754 27.2758 92.5798 27.2874 92.6626 27.304V28.9595C92.5864 28.933 92.4654 28.9098 92.2997 28.8899C92.1373 28.8667 91.9799 28.8551 91.8274 28.8551C91.4993 28.8551 91.2043 28.9264 90.9425 29.0689C90.6839 29.2081 90.4801 29.402 90.331 29.6506C90.1818 29.8991 90.1072 30.1858 90.1072 30.5107V35H88.3075ZM99.8938 29.3821L98.2532 29.5611C98.2068 29.3954 98.1256 29.2396 98.0096 29.0938C97.8969 28.9479 97.7444 28.8303 97.5522 28.7408C97.36 28.6513 97.1246 28.6065 96.8462 28.6065C96.4717 28.6065 96.1568 28.6877 95.9016 28.8501C95.6497 29.0125 95.5254 29.223 95.5288 29.4815C95.5254 29.7036 95.6067 29.8842 95.7724 30.0234C95.9414 30.1626 96.2198 30.277 96.6076 30.3665L97.9102 30.6449C98.6327 30.8007 99.1696 31.0476 99.521 31.3857C99.8756 31.7237 100.055 32.1662 100.058 32.7131C100.055 33.1937 99.9137 33.6179 99.6353 33.9858C99.3602 34.3504 98.9774 34.6354 98.4869 34.8409C97.9963 35.0464 97.4329 35.1491 96.7965 35.1491C95.8619 35.1491 95.1095 34.9536 94.5394 34.5625C93.9693 34.1681 93.6296 33.6196 93.5202 32.9169L95.2752 32.7479C95.3548 33.0926 95.5238 33.3527 95.7823 33.5284C96.0408 33.7041 96.3772 33.7919 96.7915 33.7919C97.2191 33.7919 97.5621 33.7041 97.8207 33.5284C98.0825 33.3527 98.2134 33.1357 98.2134 32.8771C98.2134 32.6584 98.1289 32.4777 97.9599 32.3352C97.7942 32.1927 97.5356 32.0833 97.1843 32.0071L95.8817 31.7337C95.1493 31.5812 94.6074 31.3243 94.256 30.9631C93.9047 30.5985 93.7307 30.1378 93.734 29.581C93.7307 29.1103 93.8583 28.7027 94.1168 28.358C94.3787 28.0099 94.7416 27.7415 95.2056 27.5526C95.6729 27.3603 96.2115 27.2642 96.8214 27.2642C97.7163 27.2642 98.4206 27.4548 98.9343 27.8359C99.4513 28.2171 99.7712 28.7325 99.8938 29.3821Z" fill="#1C1C1C"/>
<path d="M117.676 25.9119V24.8182H125.312V25.9119H122.111V35H120.878V25.9119H117.676ZM129.051 35.1591C128.362 35.1591 127.757 34.995 127.237 34.6669C126.719 34.3388 126.315 33.8797 126.023 33.2898C125.735 32.6998 125.591 32.0104 125.591 31.2216C125.591 30.4261 125.735 29.7318 126.023 29.1385C126.315 28.5452 126.719 28.0845 127.237 27.7564C127.757 27.4283 128.362 27.2642 129.051 27.2642C129.741 27.2642 130.344 27.4283 130.861 27.7564C131.381 28.0845 131.786 28.5452 132.074 29.1385C132.366 29.7318 132.511 30.4261 132.511 31.2216C132.511 32.0104 132.366 32.6998 132.074 33.2898C131.786 33.8797 131.381 34.3388 130.861 34.6669C130.344 34.995 129.741 35.1591 129.051 35.1591ZM129.051 34.1051C129.575 34.1051 130.006 33.9709 130.344 33.7024C130.682 33.4339 130.932 33.081 131.094 32.6435C131.257 32.206 131.338 31.732 131.338 31.2216C131.338 30.7112 131.257 30.2356 131.094 29.7947C130.932 29.3539 130.682 28.9976 130.344 28.7259C130.006 28.4541 129.575 28.3182 129.051 28.3182C128.527 28.3182 128.097 28.4541 127.759 28.7259C127.42 28.9976 127.17 29.3539 127.008 29.7947C126.845 30.2356 126.764 30.7112 126.764 31.2216C126.764 31.732 126.845 32.206 127.008 32.6435C127.17 33.081 127.42 33.4339 127.759 33.7024C128.097 33.9709 128.527 34.1051 129.051 34.1051ZM137.623 27.3636V28.358H133.666V27.3636H137.623ZM134.819 25.5341H135.993V32.8125C135.993 33.1439 136.041 33.3925 136.137 33.5582C136.236 33.7206 136.362 33.83 136.515 33.8864C136.671 33.9394 136.835 33.9659 137.007 33.9659C137.136 33.9659 137.242 33.9593 137.325 33.946C137.408 33.9295 137.474 33.9162 137.524 33.9062L137.763 34.9602C137.683 34.9901 137.572 35.0199 137.43 35.0497C137.287 35.0829 137.106 35.0994 136.888 35.0994C136.556 35.0994 136.231 35.0282 135.913 34.8857C135.598 34.7431 135.336 34.526 135.128 34.2344C134.922 33.9427 134.819 33.5748 134.819 33.1307V25.5341ZM141.635 35.179C141.152 35.179 140.712 35.0878 140.318 34.9055C139.924 34.7199 139.61 34.4531 139.378 34.1051C139.146 33.7538 139.03 33.3295 139.03 32.8324C139.03 32.3949 139.117 32.0402 139.289 31.7685C139.461 31.4934 139.692 31.2779 139.98 31.1222C140.268 30.9664 140.586 30.8504 140.934 30.7741C141.286 30.6946 141.639 30.6316 141.993 30.5852C142.457 30.5256 142.834 30.4808 143.122 30.451C143.414 30.4179 143.626 30.3632 143.758 30.2869C143.894 30.2107 143.962 30.0781 143.962 29.8892V29.8494C143.962 29.3589 143.828 28.9777 143.559 28.706C143.294 28.4342 142.892 28.2983 142.351 28.2983C141.791 28.2983 141.352 28.4209 141.034 28.6662C140.716 28.9115 140.492 29.1733 140.363 29.4517L139.249 29.054C139.448 28.59 139.713 28.2287 140.045 27.9702C140.379 27.7083 140.744 27.526 141.138 27.4233C141.536 27.3172 141.927 27.2642 142.312 27.2642C142.557 27.2642 142.839 27.294 143.157 27.3537C143.478 27.41 143.788 27.5277 144.086 27.7067C144.388 27.8857 144.638 28.1558 144.837 28.517C145.036 28.8783 145.135 29.3622 145.135 29.9688V35H143.962V33.9659H143.903C143.823 34.1316 143.69 34.3089 143.505 34.4979C143.319 34.6868 143.072 34.8475 142.764 34.9801C142.456 35.1127 142.08 35.179 141.635 35.179ZM141.814 34.125C142.278 34.125 142.67 34.0339 142.988 33.8516C143.309 33.6693 143.551 33.4339 143.714 33.1456C143.879 32.8572 143.962 32.554 143.962 32.2358V31.1619C143.912 31.2216 143.803 31.2763 143.634 31.326C143.468 31.3724 143.276 31.4138 143.057 31.4503C142.842 31.4834 142.631 31.5133 142.426 31.5398C142.224 31.563 142.06 31.5829 141.934 31.5994C141.629 31.6392 141.344 31.7038 141.079 31.7933C140.817 31.8795 140.605 32.0104 140.442 32.1861C140.283 32.3584 140.204 32.5937 140.204 32.892C140.204 33.2997 140.354 33.608 140.656 33.8168C140.961 34.0223 141.347 34.125 141.814 34.125ZM148.45 24.8182V35H147.277V24.8182H148.45ZM154.696 35V24.8182H158.136C158.935 24.8182 159.588 24.9624 160.095 25.2507C160.605 25.5357 160.983 25.9219 161.229 26.4091C161.474 26.8963 161.596 27.4399 161.596 28.0398C161.596 28.6397 161.474 29.1849 161.229 29.6754C160.987 30.166 160.612 30.5571 160.105 30.8487C159.598 31.1371 158.948 31.2812 158.156 31.2812H155.69V30.1875H158.116C158.663 30.1875 159.102 30.093 159.434 29.9041C159.765 29.7152 160.006 29.46 160.155 29.1385C160.307 28.8137 160.383 28.4474 160.383 28.0398C160.383 27.6321 160.307 27.2675 160.155 26.946C160.006 26.6245 159.764 26.3726 159.429 26.1903C159.094 26.0047 158.65 25.9119 158.096 25.9119H155.929V35H154.696ZM163.423 35V27.3636H164.557V28.517H164.637C164.776 28.1392 165.028 27.8326 165.392 27.5973C165.757 27.362 166.168 27.2443 166.625 27.2443C166.711 27.2443 166.819 27.246 166.948 27.2493C167.078 27.2526 167.175 27.2576 167.242 27.2642V28.4574C167.202 28.4474 167.111 28.4325 166.968 28.4126C166.829 28.3894 166.682 28.3778 166.526 28.3778C166.155 28.3778 165.823 28.4557 165.531 28.6115C165.243 28.764 165.014 28.9761 164.845 29.2479C164.68 29.5163 164.597 29.8229 164.597 30.1676V35H163.423ZM171.502 35.1591C170.813 35.1591 170.208 34.995 169.688 34.6669C169.171 34.3388 168.766 33.8797 168.475 33.2898C168.186 32.6998 168.042 32.0104 168.042 31.2216C168.042 30.4261 168.186 29.7318 168.475 29.1385C168.766 28.5452 169.171 28.0845 169.688 27.7564C170.208 27.4283 170.813 27.2642 171.502 27.2642C172.192 27.2642 172.795 27.4283 173.312 27.7564C173.832 28.0845 174.237 28.5452 174.525 29.1385C174.817 29.7318 174.963 30.4261 174.963 31.2216C174.963 32.0104 174.817 32.6998 174.525 33.2898C174.237 33.8797 173.832 34.3388 173.312 34.6669C172.795 34.995 172.192 35.1591 171.502 35.1591ZM171.502 34.1051C172.026 34.1051 172.457 33.9709 172.795 33.7024C173.133 33.4339 173.383 33.081 173.546 32.6435C173.708 32.206 173.789 31.732 173.789 31.2216C173.789 30.7112 173.708 30.2356 173.546 29.7947C173.383 29.3539 173.133 28.9976 172.795 28.7259C172.457 28.4541 172.026 28.3182 171.502 28.3182C170.979 28.3182 170.548 28.4541 170.21 28.7259C169.872 28.9976 169.621 29.3539 169.459 29.7947C169.297 30.2356 169.215 30.7112 169.215 31.2216C169.215 31.732 169.297 32.206 169.459 32.6435C169.621 33.081 169.872 33.4339 170.21 33.7024C170.548 33.9709 170.979 34.1051 171.502 34.1051ZM176.754 27.3636H177.927V35.5568C177.927 36.0275 177.846 36.4351 177.683 36.7798C177.524 37.1245 177.282 37.3913 176.957 37.5803C176.636 37.7692 176.23 37.8636 175.739 37.8636C175.7 37.8636 175.66 37.8636 175.62 37.8636C175.58 37.8636 175.54 37.8636 175.501 37.8636V36.7699C175.54 36.7699 175.577 36.7699 175.61 36.7699C175.643 36.7699 175.68 36.7699 175.719 36.7699C176.077 36.7699 176.339 36.6638 176.505 36.4517C176.671 36.2429 176.754 35.9446 176.754 35.5568V27.3636ZM177.33 26.0909C177.102 26.0909 176.904 26.013 176.739 25.8572C176.576 25.7015 176.495 25.5142 176.495 25.2955C176.495 25.0767 176.576 24.8894 176.739 24.7337C176.904 24.5779 177.102 24.5 177.33 24.5C177.559 24.5 177.754 24.5779 177.917 24.7337C178.083 24.8894 178.165 25.0767 178.165 25.2955C178.165 25.5142 178.083 25.7015 177.917 25.8572C177.754 26.013 177.559 26.0909 177.33 26.0909ZM183.278 35.1591C182.542 35.1591 181.907 34.9967 181.373 34.6719C180.843 34.3438 180.434 33.8864 180.145 33.2997C179.86 32.7098 179.718 32.0237 179.718 31.2415C179.718 30.4593 179.86 29.7699 180.145 29.1733C180.434 28.5734 180.835 28.1061 181.349 27.7713C181.866 27.4332 182.469 27.2642 183.158 27.2642C183.556 27.2642 183.949 27.3305 184.336 27.4631C184.724 27.5956 185.077 27.8111 185.395 28.1094C185.714 28.4044 185.967 28.7955 186.156 29.2827C186.345 29.7699 186.439 30.3698 186.439 31.0824V31.5795H180.553V30.5653H185.246C185.246 30.1345 185.16 29.75 184.988 29.4119C184.819 29.0739 184.577 28.8071 184.262 28.6115C183.95 28.416 183.582 28.3182 183.158 28.3182C182.691 28.3182 182.287 28.4342 181.945 28.6662C181.607 28.8949 181.347 29.1932 181.165 29.5611C180.982 29.929 180.891 30.3234 180.891 30.7443V31.4205C180.891 31.9972 180.991 32.486 181.189 32.8871C181.392 33.2848 181.672 33.5881 182.03 33.7969C182.388 34.0024 182.804 34.1051 183.278 34.1051C183.586 34.1051 183.864 34.062 184.113 33.9759C184.365 33.8864 184.582 33.7538 184.764 33.5781C184.946 33.3991 185.087 33.1771 185.187 32.9119L186.32 33.2301C186.201 33.6146 186 33.9527 185.719 34.2443C185.437 34.5327 185.089 34.758 184.675 34.9205C184.26 35.0795 183.795 35.1591 183.278 35.1591ZM191.327 35.1591C190.611 35.1591 189.994 34.9901 189.477 34.652C188.96 34.3139 188.562 33.8482 188.284 33.255C188.006 32.6617 187.866 31.9839 187.866 31.2216C187.866 30.446 188.009 29.7616 188.294 29.1683C188.582 28.5717 188.983 28.1061 189.497 27.7713C190.014 27.4332 190.617 27.2642 191.307 27.2642C191.844 27.2642 192.327 27.3636 192.758 27.5625C193.189 27.7614 193.542 28.0398 193.817 28.3977C194.092 28.7557 194.263 29.1733 194.329 29.6506H193.156C193.067 29.3026 192.868 28.9943 192.559 28.7259C192.255 28.4541 191.844 28.3182 191.327 28.3182C190.869 28.3182 190.468 28.4375 190.123 28.6761C189.782 28.9115 189.515 29.2446 189.323 29.6754C189.134 30.103 189.04 30.6051 189.04 31.1818C189.04 31.7718 189.132 32.2855 189.318 32.723C189.507 33.1605 189.772 33.5002 190.113 33.7422C190.458 33.9841 190.863 34.1051 191.327 34.1051C191.631 34.1051 191.908 34.0521 192.157 33.946C192.405 33.84 192.616 33.6875 192.788 33.4886C192.961 33.2898 193.083 33.0511 193.156 32.7727H194.329C194.263 33.2235 194.099 33.6295 193.837 33.9908C193.579 34.3487 193.236 34.6338 192.808 34.8459C192.384 35.0547 191.89 35.1591 191.327 35.1591ZM199.366 27.3636V28.358H195.408V27.3636H199.366ZM196.562 25.5341H197.735V32.8125C197.735 33.1439 197.783 33.3925 197.879 33.5582C197.979 33.7206 198.104 33.83 198.257 33.8864C198.413 33.9394 198.577 33.9659 198.749 33.9659C198.878 33.9659 198.984 33.9593 199.067 33.946C199.15 33.9295 199.216 33.9162 199.266 33.9062L199.505 34.9602C199.425 34.9901 199.314 35.0199 199.172 35.0497C199.029 35.0829 198.849 35.0994 198.63 35.0994C198.298 35.0994 197.974 35.0282 197.655 34.8857C197.34 34.7431 197.079 34.526 196.87 34.2344C196.664 33.9427 196.562 33.5748 196.562 33.1307V25.5341ZM206.403 29.0739L205.349 29.3722C205.283 29.1965 205.185 29.0258 205.056 28.8601C204.93 28.6911 204.757 28.5518 204.539 28.4425C204.32 28.3331 204.04 28.2784 203.698 28.2784C203.231 28.2784 202.842 28.3861 202.53 28.6016C202.222 28.8137 202.068 29.0838 202.068 29.4119C202.068 29.7036 202.174 29.9339 202.386 30.103C202.598 30.272 202.929 30.4129 203.38 30.5256L204.514 30.804C205.196 30.9697 205.705 31.2232 206.04 31.5646C206.375 31.9027 206.542 32.3385 206.542 32.8722C206.542 33.3097 206.416 33.7008 206.164 34.0455C205.916 34.3902 205.568 34.6619 205.12 34.8608C204.673 35.0597 204.152 35.1591 203.559 35.1591C202.78 35.1591 202.136 34.9901 201.625 34.652C201.115 34.3139 200.792 33.8201 200.656 33.1705L201.769 32.892C201.875 33.303 202.076 33.6113 202.371 33.8168C202.669 34.0223 203.059 34.125 203.539 34.125C204.086 34.125 204.52 34.009 204.842 33.777C205.167 33.5417 205.329 33.2599 205.329 32.9318C205.329 32.6667 205.236 32.4446 205.051 32.2656C204.865 32.0833 204.58 31.9474 204.195 31.858L202.923 31.5597C202.223 31.3939 201.71 31.1371 201.382 30.7891C201.057 30.4377 200.894 29.9986 200.894 29.4716C200.894 29.0407 201.015 28.6596 201.257 28.3281C201.503 27.9967 201.836 27.7365 202.257 27.5476C202.681 27.3587 203.161 27.2642 203.698 27.2642C204.454 27.2642 205.047 27.4299 205.478 27.7614C205.912 28.0928 206.221 28.5303 206.403 29.0739Z" fill="black" fill-opacity="0.4"/>
<path d="M233.824 29.9091C233.824 30.983 233.63 31.911 233.242 32.6932C232.854 33.4754 232.322 34.0786 231.646 34.5028C230.97 34.9271 230.198 35.1392 229.33 35.1392C228.461 35.1392 227.689 34.9271 227.013 34.5028C226.337 34.0786 225.805 33.4754 225.417 32.6932C225.029 31.911 224.835 30.983 224.835 29.9091C224.835 28.8352 225.029 27.9072 225.417 27.125C225.805 26.3428 226.337 25.7396 227.013 25.3153C227.689 24.8911 228.461 24.679 229.33 24.679C230.198 24.679 230.97 24.8911 231.646 25.3153C232.322 25.7396 232.854 26.3428 233.242 27.125C233.63 27.9072 233.824 28.8352 233.824 29.9091ZM232.631 29.9091C232.631 29.0275 232.483 28.2834 232.188 27.6768C231.897 27.0703 231.5 26.6113 231 26.2997C230.503 25.9882 229.946 25.8324 229.33 25.8324C228.713 25.8324 228.155 25.9882 227.654 26.2997C227.157 26.6113 226.761 27.0703 226.466 27.6768C226.174 28.2834 226.028 29.0275 226.028 29.9091C226.028 30.7907 226.174 31.5348 226.466 32.1413C226.761 32.7479 227.157 33.2069 227.654 33.5185C228.155 33.83 228.713 33.9858 229.33 33.9858C229.946 33.9858 230.503 33.83 231 33.5185C231.5 33.2069 231.897 32.7479 232.188 32.1413C232.483 31.5348 232.631 30.7907 232.631 29.9091ZM235.738 37.8636V27.3636H236.871V28.5767H237.011C237.097 28.4441 237.216 28.2751 237.369 28.0696C237.524 27.8608 237.746 27.6752 238.035 27.5128C238.326 27.3471 238.721 27.2642 239.218 27.2642C239.861 27.2642 240.428 27.425 240.918 27.7464C241.409 28.0679 241.792 28.5237 242.067 29.1136C242.342 29.7036 242.479 30.3996 242.479 31.2017C242.479 32.0104 242.342 32.7114 242.067 33.3047C241.792 33.8946 241.411 34.352 240.923 34.6768C240.436 34.9983 239.874 35.1591 239.238 35.1591C238.747 35.1591 238.355 35.0779 238.06 34.9155C237.765 34.7498 237.538 34.5625 237.379 34.3537C237.219 34.1416 237.097 33.9659 237.011 33.8267H236.911V37.8636H235.738ZM236.891 31.1818C236.891 31.7585 236.976 32.2673 237.145 32.7081C237.314 33.1456 237.561 33.4886 237.886 33.7372C238.21 33.9825 238.608 34.1051 239.079 34.1051C239.569 34.1051 239.979 33.9759 240.307 33.7173C240.638 33.4555 240.887 33.1042 241.053 32.6634C241.222 32.2192 241.306 31.7254 241.306 31.1818C241.306 30.6449 241.223 30.161 241.058 29.7301C240.895 29.2959 240.648 28.9529 240.317 28.701C239.989 28.4458 239.576 28.3182 239.079 28.3182C238.602 28.3182 238.201 28.4392 237.876 28.6811C237.551 28.9197 237.306 29.2545 237.14 29.6854C236.974 30.1129 236.891 30.6117 236.891 31.1818ZM247.471 35.1591C246.735 35.1591 246.1 34.9967 245.567 34.6719C245.036 34.3438 244.627 33.8864 244.339 33.2997C244.054 32.7098 243.911 32.0237 243.911 31.2415C243.911 30.4593 244.054 29.7699 244.339 29.1733C244.627 28.5734 245.028 28.1061 245.542 27.7713C246.059 27.4332 246.662 27.2642 247.352 27.2642C247.749 27.2642 248.142 27.3305 248.53 27.4631C248.918 27.5956 249.271 27.8111 249.589 28.1094C249.907 28.4044 250.161 28.7955 250.349 29.2827C250.538 29.7699 250.633 30.3698 250.633 31.0824V31.5795H244.746V30.5653H249.44C249.44 30.1345 249.353 29.75 249.181 29.4119C249.012 29.0739 248.77 28.8071 248.455 28.6115C248.144 28.416 247.776 28.3182 247.352 28.3182C246.884 28.3182 246.48 28.4342 246.138 28.6662C245.8 28.8949 245.54 29.1932 245.358 29.5611C245.176 29.929 245.085 30.3234 245.085 30.7443V31.4205C245.085 31.9972 245.184 32.486 245.383 32.8871C245.585 33.2848 245.865 33.5881 246.223 33.7969C246.581 34.0024 246.997 34.1051 247.471 34.1051C247.779 34.1051 248.058 34.062 248.306 33.9759C248.558 33.8864 248.775 33.7538 248.957 33.5781C249.14 33.3991 249.281 33.1771 249.38 32.9119L250.513 33.2301C250.394 33.6146 250.194 33.9527 249.912 34.2443C249.63 34.5327 249.282 34.758 248.868 34.9205C248.454 35.0795 247.988 35.1591 247.471 35.1591ZM252.418 35V27.3636H253.551V28.517H253.631C253.77 28.1392 254.022 27.8326 254.386 27.5973C254.751 27.362 255.162 27.2443 255.619 27.2443C255.705 27.2443 255.813 27.246 255.942 27.2493C256.072 27.2526 256.17 27.2576 256.236 27.2642V28.4574C256.196 28.4474 256.105 28.4325 255.962 28.4126C255.823 28.3894 255.676 28.3778 255.52 28.3778C255.149 28.3778 254.817 28.4557 254.526 28.6115C254.237 28.764 254.009 28.9761 253.839 29.2479C253.674 29.5163 253.591 29.8229 253.591 30.1676V35H252.418ZM259.874 35.179C259.39 35.179 258.951 35.0878 258.556 34.9055C258.162 34.7199 257.849 34.4531 257.617 34.1051C257.385 33.7538 257.269 33.3295 257.269 32.8324C257.269 32.3949 257.355 32.0402 257.527 31.7685C257.7 31.4934 257.93 31.2779 258.218 31.1222C258.507 30.9664 258.825 30.8504 259.173 30.7741C259.524 30.6946 259.877 30.6316 260.232 30.5852C260.696 30.5256 261.072 30.4808 261.36 30.451C261.652 30.4179 261.864 30.3632 261.997 30.2869C262.133 30.2107 262.2 30.0781 262.2 29.8892V29.8494C262.2 29.3589 262.066 28.9777 261.798 28.706C261.533 28.4342 261.13 28.2983 260.59 28.2983C260.03 28.2983 259.59 28.4209 259.272 28.6662C258.954 28.9115 258.73 29.1733 258.601 29.4517L257.487 29.054C257.686 28.59 257.951 28.2287 258.283 27.9702C258.618 27.7083 258.982 27.526 259.377 27.4233C259.774 27.3172 260.165 27.2642 260.55 27.2642C260.795 27.2642 261.077 27.294 261.395 27.3537C261.717 27.41 262.026 27.5277 262.325 27.7067C262.626 27.8857 262.877 28.1558 263.075 28.517C263.274 28.8783 263.374 29.3622 263.374 29.9688V35H262.2V33.9659H262.141C262.061 34.1316 261.929 34.3089 261.743 34.4979C261.557 34.6868 261.311 34.8475 261.002 34.9801C260.694 35.1127 260.318 35.179 259.874 35.179ZM260.053 34.125C260.517 34.125 260.908 34.0339 261.226 33.8516C261.548 33.6693 261.789 33.4339 261.952 33.1456C262.118 32.8572 262.2 32.554 262.2 32.2358V31.1619C262.151 31.2216 262.041 31.2763 261.872 31.326C261.707 31.3724 261.514 31.4138 261.296 31.4503C261.08 31.4834 260.87 31.5133 260.664 31.5398C260.462 31.563 260.298 31.5829 260.172 31.5994C259.867 31.6392 259.582 31.7038 259.317 31.7933C259.055 31.8795 258.843 32.0104 258.681 32.1861C258.521 32.3584 258.442 32.5937 258.442 32.892C258.442 33.2997 258.593 33.608 258.894 33.8168C259.199 34.0223 259.585 34.125 260.053 34.125ZM268.836 27.3636V28.358H264.879V27.3636H268.836ZM266.032 25.5341H267.206V32.8125C267.206 33.1439 267.254 33.3925 267.35 33.5582C267.449 33.7206 267.575 33.83 267.728 33.8864C267.883 33.9394 268.047 33.9659 268.22 33.9659C268.349 33.9659 268.455 33.9593 268.538 33.946C268.621 33.9295 268.687 33.9162 268.737 33.9062L268.975 34.9602C268.896 34.9901 268.785 35.0199 268.642 35.0497C268.5 35.0829 268.319 35.0994 268.1 35.0994C267.769 35.0994 267.444 35.0282 267.126 34.8857C266.811 34.7431 266.549 34.526 266.341 34.2344C266.135 33.9427 266.032 33.5748 266.032 33.1307V25.5341ZM270.601 35V27.3636H271.775V35H270.601ZM271.198 26.0909C270.969 26.0909 270.772 26.013 270.606 25.8572C270.444 25.7015 270.363 25.5142 270.363 25.2955C270.363 25.0767 270.444 24.8894 270.606 24.7337C270.772 24.5779 270.969 24.5 271.198 24.5C271.426 24.5 271.622 24.5779 271.784 24.7337C271.95 24.8894 272.033 25.0767 272.033 25.2955C272.033 25.5142 271.95 25.7015 271.784 25.8572C271.622 26.013 271.426 26.0909 271.198 26.0909ZM275.097 30.4062V35H273.923V27.3636H275.057V28.5568H275.156C275.335 28.169 275.607 27.8575 275.972 27.6222C276.336 27.3835 276.807 27.2642 277.384 27.2642C277.901 27.2642 278.353 27.3703 278.741 27.5824C279.129 27.7912 279.43 28.1094 279.646 28.5369C279.861 28.9612 279.969 29.4981 279.969 30.1477V35H278.796V30.2273C278.796 29.6274 278.64 29.16 278.328 28.8253C278.017 28.4872 277.589 28.3182 277.046 28.3182C276.671 28.3182 276.336 28.3994 276.041 28.5618C275.75 28.7242 275.519 28.9612 275.35 29.2727C275.181 29.5843 275.097 29.9621 275.097 30.4062ZM285.195 38.0227C284.629 38.0227 284.141 37.9498 283.734 37.804C283.326 37.6615 282.986 37.4725 282.714 37.2372C282.446 37.0052 282.232 36.7566 282.073 36.4915L283.008 35.8352C283.114 35.9744 283.248 36.1335 283.411 36.3125C283.573 36.4948 283.795 36.6522 284.077 36.7848C284.362 36.9207 284.735 36.9886 285.195 36.9886C285.812 36.9886 286.321 36.8395 286.722 36.5412C287.123 36.2429 287.323 35.7756 287.323 35.1392V33.5881H287.224C287.138 33.7273 287.015 33.8996 286.856 34.1051C286.7 34.3073 286.475 34.4879 286.18 34.647C285.888 34.8028 285.494 34.8807 284.996 34.8807C284.38 34.8807 283.826 34.7348 283.336 34.4432C282.849 34.1515 282.463 33.7273 282.178 33.1705C281.896 32.6136 281.755 31.9375 281.755 31.142C281.755 30.3598 281.893 29.6787 282.168 29.0987C282.443 28.5154 282.826 28.0646 283.316 27.7464C283.807 27.425 284.373 27.2642 285.016 27.2642C285.513 27.2642 285.908 27.3471 286.2 27.5128C286.495 27.6752 286.72 27.8608 286.876 28.0696C287.035 28.2751 287.157 28.4441 287.244 28.5767H287.363V27.3636H288.496V35.2188C288.496 35.875 288.347 36.4086 288.049 36.8196C287.754 37.2339 287.356 37.5372 286.856 37.7294C286.359 37.925 285.805 38.0227 285.195 38.0227ZM285.156 33.8267C285.626 33.8267 286.024 33.719 286.349 33.5036C286.674 33.2881 286.92 32.9782 287.089 32.5739C287.259 32.1695 287.343 31.6856 287.343 31.1222C287.343 30.572 287.26 30.0864 287.094 29.6655C286.929 29.2446 286.683 28.9148 286.359 28.6761C286.034 28.4375 285.633 28.3182 285.156 28.3182C284.658 28.3182 284.244 28.4441 283.913 28.696C283.585 28.9479 283.338 29.286 283.172 29.7102C283.009 30.1345 282.928 30.6051 282.928 31.1222C282.928 31.6525 283.011 32.1214 283.177 32.5291C283.346 32.9335 283.594 33.2517 283.923 33.4837C284.254 33.7124 284.665 33.8267 285.156 33.8267ZM300.309 27.3636C300.249 26.8598 300.007 26.4688 299.583 26.1903C299.159 25.9119 298.638 25.7727 298.022 25.7727C297.571 25.7727 297.177 25.8456 296.839 25.9915C296.504 26.1373 296.242 26.3378 296.053 26.593C295.868 26.8482 295.775 27.1383 295.775 27.4631C295.775 27.7348 295.839 27.9685 295.969 28.1641C296.101 28.3563 296.27 28.517 296.476 28.6463C296.681 28.7723 296.897 28.8767 297.122 28.9595C297.348 29.0391 297.555 29.1037 297.744 29.1534L298.778 29.4318C299.043 29.5014 299.338 29.5975 299.663 29.7202C299.991 29.8428 300.304 30.0102 300.602 30.2223C300.904 30.4311 301.152 30.6996 301.348 31.0277C301.544 31.3558 301.641 31.7585 301.641 32.2358C301.641 32.786 301.497 33.2831 301.209 33.7273C300.924 34.1714 300.506 34.5244 299.956 34.7862C299.409 35.0481 298.745 35.179 297.962 35.179C297.233 35.179 296.602 35.0613 296.068 34.826C295.538 34.5907 295.12 34.2625 294.815 33.8416C294.514 33.4207 294.343 32.9318 294.303 32.375H295.576C295.609 32.7595 295.738 33.0777 295.964 33.3295C296.192 33.5781 296.481 33.7637 296.829 33.8864C297.18 34.0057 297.558 34.0653 297.962 34.0653C298.433 34.0653 298.856 33.9891 299.23 33.8366C299.605 33.6809 299.901 33.4654 300.12 33.1903C300.339 32.9119 300.448 32.5871 300.448 32.2159C300.448 31.8778 300.354 31.6027 300.165 31.3906C299.976 31.1785 299.727 31.0062 299.419 30.8736C299.111 30.741 298.778 30.625 298.42 30.5256L297.167 30.1676C296.371 29.9389 295.742 29.6125 295.278 29.1882C294.814 28.764 294.582 28.2088 294.582 27.5227C294.582 26.9527 294.736 26.4555 295.044 26.0312C295.356 25.6037 295.773 25.2723 296.297 25.0369C296.824 24.7983 297.412 24.679 298.062 24.679C298.718 24.679 299.301 24.7966 299.812 25.032C300.322 25.264 300.727 25.5821 301.025 25.9865C301.326 26.3909 301.486 26.8499 301.502 27.3636H300.309ZM306.83 27.3636V28.358H302.873V27.3636H306.83ZM304.026 25.5341H305.2V32.8125C305.2 33.1439 305.248 33.3925 305.344 33.5582C305.443 33.7206 305.569 33.83 305.722 33.8864C305.878 33.9394 306.042 33.9659 306.214 33.9659C306.343 33.9659 306.449 33.9593 306.532 33.946C306.615 33.9295 306.681 33.9162 306.731 33.9062L306.97 34.9602C306.89 34.9901 306.779 35.0199 306.637 35.0497C306.494 35.0829 306.313 35.0994 306.095 35.0994C305.763 35.0994 305.438 35.0282 305.12 34.8857C304.805 34.7431 304.544 34.526 304.335 34.2344C304.129 33.9427 304.026 33.5748 304.026 33.1307V25.5341ZM310.843 35.179C310.359 35.179 309.919 35.0878 309.525 34.9055C309.131 34.7199 308.817 34.4531 308.585 34.1051C308.353 33.7538 308.237 33.3295 308.237 32.8324C308.237 32.3949 308.324 32.0402 308.496 31.7685C308.668 31.4934 308.899 31.2779 309.187 31.1222C309.475 30.9664 309.794 30.8504 310.142 30.7741C310.493 30.6946 310.846 30.6316 311.2 30.5852C311.664 30.5256 312.041 30.4808 312.329 30.451C312.621 30.4179 312.833 30.3632 312.965 30.2869C313.101 30.2107 313.169 30.0781 313.169 29.8892V29.8494C313.169 29.3589 313.035 28.9777 312.767 28.706C312.501 28.4342 312.099 28.2983 311.558 28.2983C310.998 28.2983 310.559 28.4209 310.241 28.6662C309.923 28.9115 309.699 29.1733 309.57 29.4517L308.456 29.054C308.655 28.59 308.92 28.2287 309.252 27.9702C309.586 27.7083 309.951 27.526 310.345 27.4233C310.743 27.3172 311.134 27.2642 311.519 27.2642C311.764 27.2642 312.046 27.294 312.364 27.3537C312.685 27.41 312.995 27.5277 313.294 27.7067C313.595 27.8857 313.845 28.1558 314.044 28.517C314.243 28.8783 314.343 29.3622 314.343 29.9688V35H313.169V33.9659H313.11C313.03 34.1316 312.897 34.3089 312.712 34.4979C312.526 34.6868 312.279 34.8475 311.971 34.9801C311.663 35.1127 311.287 35.179 310.843 35.179ZM311.021 34.125C311.485 34.125 311.877 34.0339 312.195 33.8516C312.516 33.6693 312.758 33.4339 312.921 33.1456C313.086 32.8572 313.169 32.554 313.169 32.2358V31.1619C313.119 31.2216 313.01 31.2763 312.841 31.326C312.675 31.3724 312.483 31.4138 312.264 31.4503C312.049 31.4834 311.838 31.5133 311.633 31.5398C311.431 31.563 311.267 31.5829 311.141 31.5994C310.836 31.6392 310.551 31.7038 310.286 31.7933C310.024 31.8795 309.812 32.0104 309.649 32.1861C309.49 32.3584 309.411 32.5937 309.411 32.892C309.411 33.2997 309.561 33.608 309.863 33.8168C310.168 34.0223 310.554 34.125 311.021 34.125ZM319.805 27.3636V28.358H315.848V27.3636H319.805ZM317.001 25.5341H318.174V32.8125C318.174 33.1439 318.222 33.3925 318.319 33.5582C318.418 33.7206 318.544 33.83 318.696 33.8864C318.852 33.9394 319.016 33.9659 319.189 33.9659C319.318 33.9659 319.424 33.9593 319.507 33.946C319.59 33.9295 319.656 33.9162 319.706 33.9062L319.944 34.9602C319.865 34.9901 319.754 35.0199 319.611 35.0497C319.469 35.0829 319.288 35.0994 319.069 35.0994C318.738 35.0994 318.413 35.0282 318.095 34.8857C317.78 34.7431 317.518 34.526 317.309 34.2344C317.104 33.9427 317.001 33.5748 317.001 33.1307V25.5341ZM326.382 31.8778V27.3636H327.556V35H326.382V33.7074H326.303C326.124 34.0952 325.846 34.425 325.468 34.6967C325.09 34.9652 324.613 35.0994 324.036 35.0994C323.559 35.0994 323.134 34.995 322.763 34.7862C322.392 34.5741 322.1 34.2559 321.888 33.8317C321.676 33.4041 321.57 32.8655 321.57 32.2159V27.3636H322.743V32.1364C322.743 32.6932 322.899 33.1373 323.211 33.4688C323.525 33.8002 323.926 33.9659 324.414 33.9659C324.705 33.9659 325.002 33.8913 325.304 33.7422C325.609 33.593 325.864 33.3643 326.069 33.0561C326.278 32.7479 326.382 32.3551 326.382 31.8778ZM335.114 29.0739L334.06 29.3722C333.994 29.1965 333.896 29.0258 333.767 28.8601C333.641 28.6911 333.468 28.5518 333.249 28.4425C333.031 28.3331 332.751 28.2784 332.409 28.2784C331.942 28.2784 331.552 28.3861 331.241 28.6016C330.933 28.8137 330.779 29.0838 330.779 29.4119C330.779 29.7036 330.885 29.9339 331.097 30.103C331.309 30.272 331.64 30.4129 332.091 30.5256L333.225 30.804C333.907 30.9697 334.416 31.2232 334.751 31.5646C335.086 31.9027 335.253 32.3385 335.253 32.8722C335.253 33.3097 335.127 33.7008 334.875 34.0455C334.627 34.3902 334.279 34.6619 333.831 34.8608C333.384 35.0597 332.863 35.1591 332.27 35.1591C331.491 35.1591 330.847 34.9901 330.336 34.652C329.826 34.3139 329.503 33.8201 329.367 33.1705L330.48 32.892C330.586 33.303 330.787 33.6113 331.082 33.8168C331.38 34.0223 331.77 34.125 332.25 34.125C332.797 34.125 333.231 34.009 333.553 33.777C333.878 33.5417 334.04 33.2599 334.04 32.9318C334.04 32.6667 333.947 32.4446 333.762 32.2656C333.576 32.0833 333.291 31.9474 332.906 31.858L331.634 31.5597C330.934 31.3939 330.421 31.1371 330.093 30.7891C329.768 30.4377 329.605 29.9986 329.605 29.4716C329.605 29.0407 329.726 28.6596 329.968 28.3281C330.213 27.9967 330.547 27.7365 330.968 27.5476C331.392 27.3587 331.872 27.2642 332.409 27.2642C333.165 27.2642 333.758 27.4299 334.189 27.7614C334.623 28.0928 334.932 28.5303 335.114 29.0739Z" fill="black" fill-opacity="0.4"/>
<path d="M28.4169 64.2727V73H27.3601V65.3807H27.3089L25.1783 66.7955V65.7216L27.3601 64.2727H28.4169ZM33.6541 73.1193C33.1541 73.1193 32.7038 73.0199 32.3033 72.821C31.9027 72.6222 31.5817 72.3494 31.3402 72.0028C31.0987 71.6562 30.9666 71.2614 30.9439 70.8182H31.9666C32.0064 71.2131 32.1854 71.5398 32.5036 71.7983C32.8246 72.054 33.2081 72.1818 33.6541 72.1818C34.0121 72.1818 34.3303 72.098 34.6087 71.9304C34.8899 71.7628 35.1101 71.5327 35.2692 71.2401C35.4311 70.9446 35.5121 70.6108 35.5121 70.2386C35.5121 69.858 35.4283 69.5185 35.2607 69.2202C35.0959 68.919 34.8686 68.6818 34.5788 68.5085C34.2891 68.3352 33.9581 68.2472 33.5859 68.2443C33.3189 68.2415 33.0447 68.2827 32.7635 68.3679C32.4822 68.4503 32.2507 68.5568 32.0689 68.6875L31.0803 68.5682L31.6087 64.2727H36.1428V65.2102H32.495L32.1882 67.7841H32.2393C32.4183 67.642 32.6428 67.5241 32.9126 67.4304C33.1825 67.3366 33.4638 67.2898 33.7564 67.2898C34.2905 67.2898 34.7663 67.4176 35.1839 67.6733C35.6044 67.9261 35.9339 68.2727 36.1726 68.7131C36.4141 69.1534 36.5348 69.6562 36.5348 70.2216C36.5348 70.7784 36.4098 71.2756 36.1598 71.7131C35.9126 72.1477 35.5717 72.4915 35.1371 72.7443C34.7024 72.9943 34.2081 73.1193 33.6541 73.1193ZM38.381 64.2727H39.6424L42.6083 71.517H42.7106L45.6765 64.2727H46.9379V73H45.9492V66.3693H45.864L43.1367 73H42.1822L39.4549 66.3693H39.3697V73H38.381V64.2727Z" fill="black" fill-opacity="0.4"/>
<path d="M28.2177 111.273V120H27.1609V112.381H27.1097L24.979 113.795V112.722L27.1609 111.273H28.2177ZM33.5742 120.119C32.9322 120.119 32.3853 119.945 31.9336 119.595C31.4819 119.243 31.1367 118.733 30.8981 118.065C30.6594 117.395 30.5401 116.585 30.5401 115.636C30.5401 114.693 30.6594 113.888 30.8981 113.22C31.1396 112.55 31.4862 112.038 31.9379 111.686C32.3924 111.331 32.9379 111.153 33.5742 111.153C34.2106 111.153 34.7546 111.331 35.2063 111.686C35.6609 112.038 36.0075 112.55 36.2461 113.22C36.4876 113.888 36.6083 114.693 36.6083 115.636C36.6083 116.585 36.489 117.395 36.2504 118.065C36.0117 118.733 35.6665 119.243 35.2148 119.595C34.7631 119.945 34.2163 120.119 33.5742 120.119ZM33.5742 119.182C34.2106 119.182 34.7049 118.875 35.0572 118.261C35.4094 117.648 35.5856 116.773 35.5856 115.636C35.5856 114.881 35.5046 114.237 35.3427 113.706C35.1836 113.175 34.9535 112.77 34.6523 112.491C34.354 112.213 33.9947 112.074 33.5742 112.074C32.9435 112.074 32.4506 112.385 32.0955 113.007C31.7404 113.626 31.5629 114.503 31.5629 115.636C31.5629 116.392 31.6424 117.034 31.8015 117.562C31.9606 118.091 32.1893 118.493 32.4876 118.768C32.7887 119.044 33.1509 119.182 33.5742 119.182ZM38.381 111.273H39.6424L42.6083 118.517H42.7106L45.6765 111.273H46.9379V120H45.9492V113.369H45.864L43.1367 120H42.1822L39.4549 113.369H39.3697V120H38.381V111.273Z" fill="black" fill-opacity="0.4"/>
<path d="M33.6541 167.119C33.1541 167.119 32.7038 167.02 32.3033 166.821C31.9027 166.622 31.5817 166.349 31.3402 166.003C31.0987 165.656 30.9666 165.261 30.9439 164.818H31.9666C32.0064 165.213 32.1854 165.54 32.5036 165.798C32.8246 166.054 33.2081 166.182 33.6541 166.182C34.0121 166.182 34.3303 166.098 34.6087 165.93C34.8899 165.763 35.1101 165.533 35.2692 165.24C35.4311 164.945 35.5121 164.611 35.5121 164.239C35.5121 163.858 35.4283 163.518 35.2607 163.22C35.0959 162.919 34.8686 162.682 34.5788 162.509C34.2891 162.335 33.9581 162.247 33.5859 162.244C33.3189 162.241 33.0447 162.283 32.7635 162.368C32.4822 162.45 32.2507 162.557 32.0689 162.688L31.0803 162.568L31.6087 158.273H36.1428V159.21H32.495L32.1882 161.784H32.2393C32.4183 161.642 32.6428 161.524 32.9126 161.43C33.1825 161.337 33.4638 161.29 33.7564 161.29C34.2905 161.29 34.7663 161.418 35.1839 161.673C35.6044 161.926 35.9339 162.273 36.1726 162.713C36.4141 163.153 36.5348 163.656 36.5348 164.222C36.5348 164.778 36.4098 165.276 36.1598 165.713C35.9126 166.148 35.5717 166.491 35.1371 166.744C34.7024 166.994 34.2081 167.119 33.6541 167.119ZM38.381 158.273H39.6424L42.6083 165.517H42.7106L45.6765 158.273H46.9379V167H45.9492V160.369H45.864L43.1367 167H42.1822L39.4549 160.369H39.3697V167H38.381V158.273Z" fill="black" fill-opacity="0.4"/>
<path d="M35.7177 205.273V214H34.6609V206.381H34.6097L32.479 207.795V206.722L34.6609 205.273H35.7177ZM38.381 205.273H39.6424L42.6083 212.517H42.7106L45.6765 205.273H46.9379V214H45.9492V207.369H45.864L43.1367 214H42.1822L39.4549 207.369H39.3697V214H38.381V205.273Z" fill="black" fill-opacity="0.4"/>
<path d="M44.25 261.119C43.608 261.119 43.0611 260.945 42.6094 260.595C42.1577 260.243 41.8125 259.733 41.5739 259.065C41.3352 258.395 41.2159 257.585 41.2159 256.636C41.2159 255.693 41.3352 254.888 41.5739 254.22C41.8153 253.55 42.1619 253.038 42.6136 252.686C43.0682 252.331 43.6136 252.153 44.25 252.153C44.8864 252.153 45.4304 252.331 45.8821 252.686C46.3366 253.038 46.6832 253.55 46.9219 254.22C47.1634 254.888 47.2841 255.693 47.2841 256.636C47.2841 257.585 47.1648 258.395 46.9261 259.065C46.6875 259.733 46.3423 260.243 45.8906 260.595C45.4389 260.945 44.892 261.119 44.25 261.119ZM44.25 260.182C44.8864 260.182 45.3807 259.875 45.733 259.261C46.0852 258.648 46.2614 257.773 46.2614 256.636C46.2614 255.881 46.1804 255.237 46.0185 254.706C45.8594 254.175 45.6293 253.77 45.3281 253.491C45.0298 253.213 44.6705 253.074 44.25 253.074C43.6193 253.074 43.1264 253.385 42.7713 254.007C42.4162 254.626 42.2386 255.503 42.2386 256.636C42.2386 257.392 42.3182 258.034 42.4773 258.562C42.6364 259.091 42.8651 259.493 43.1634 259.768C43.4645 260.044 43.8267 260.182 44.25 260.182Z" fill="black" fill-opacity="0.4"/>
<line x1="64.5" y1="75.5" x2="285.5" y2="75.5" stroke="black" stroke-opacity="0.05" stroke-linecap="round"/>
<line x1="64.5" y1="123" x2="285.5" y2="123" stroke="black" stroke-opacity="0.05" stroke-linecap="round"/>
<line x1="64.5" y1="170.5" x2="285.5" y2="170.5" stroke="black" stroke-opacity="0.05" stroke-linecap="round"/>
<line x1="64.5" y1="218" x2="285.5" y2="218" stroke="black" stroke-opacity="0.05" stroke-linecap="round"/>
<line x1="64.5" y1="265.5" x2="285.5" y2="265.5" stroke="black" stroke-opacity="0.2" stroke-linecap="round"/>
<path d="M68.4862 282.273H69.7476L72.7135 289.517H72.8158L75.7817 282.273H77.043V291H76.0544V284.369H75.9692L73.2419 291H72.2874L69.5601 284.369H69.4749V291H68.4862V282.273ZM81.6847 291.136C81.0938 291.136 80.5754 290.996 80.1293 290.714C79.6862 290.433 79.3396 290.04 79.0896 289.534C78.8424 289.028 78.7188 288.437 78.7188 287.761C78.7188 287.08 78.8424 286.484 79.0896 285.976C79.3396 285.467 79.6862 285.072 80.1293 284.791C80.5754 284.51 81.0938 284.369 81.6847 284.369C82.2756 284.369 82.7927 284.51 83.2359 284.791C83.6819 285.072 84.0285 285.467 84.2756 285.976C84.5256 286.484 84.6506 287.08 84.6506 287.761C84.6506 288.437 84.5256 289.028 84.2756 289.534C84.0285 290.04 83.6819 290.433 83.2359 290.714C82.7927 290.996 82.2756 291.136 81.6847 291.136ZM81.6847 290.233C82.1336 290.233 82.5029 290.118 82.7927 289.888C83.0825 289.658 83.297 289.355 83.4362 288.98C83.5754 288.605 83.645 288.199 83.645 287.761C83.645 287.324 83.5754 286.916 83.4362 286.538C83.297 286.161 83.0825 285.855 82.7927 285.622C82.5029 285.389 82.1336 285.273 81.6847 285.273C81.2359 285.273 80.8666 285.389 80.5768 285.622C80.287 285.855 80.0725 286.161 79.9333 286.538C79.7941 286.916 79.7245 287.324 79.7245 287.761C79.7245 288.199 79.7941 288.605 79.9333 288.98C80.0725 289.355 80.287 289.658 80.5768 289.888C80.8666 290.118 81.2359 290.233 81.6847 290.233ZM87.1915 287.062V291H86.1858V284.455H87.1574V285.477H87.2426C87.396 285.145 87.629 284.878 87.9415 284.676C88.254 284.472 88.6574 284.369 89.1517 284.369C89.5949 284.369 89.9827 284.46 90.3151 284.642C90.6474 284.821 90.906 285.094 91.0906 285.46C91.2753 285.824 91.3676 286.284 91.3676 286.841V291H90.3619V286.909C90.3619 286.395 90.2284 285.994 89.9614 285.707C89.6943 285.418 89.3278 285.273 88.8619 285.273C88.5409 285.273 88.254 285.342 88.0011 285.482C87.7511 285.621 87.5537 285.824 87.4088 286.091C87.2639 286.358 87.1915 286.682 87.1915 287.062Z" fill="black" fill-opacity="0.4"/>
<path d="M101.768 283.21V282.273H108.314V283.21H105.569V291H104.512V283.21H101.768ZM113.043 288.324V284.455H114.048V291H113.043V289.892H112.974C112.821 290.224 112.582 290.507 112.259 290.74C111.935 290.97 111.526 291.085 111.031 291.085C110.622 291.085 110.259 290.996 109.94 290.817C109.622 290.635 109.372 290.362 109.19 289.999C109.009 289.632 108.918 289.17 108.918 288.614V284.455H109.923V288.545C109.923 289.023 110.057 289.403 110.324 289.688C110.594 289.972 110.937 290.114 111.355 290.114C111.605 290.114 111.859 290.05 112.118 289.922C112.379 289.794 112.598 289.598 112.774 289.334C112.953 289.07 113.043 288.733 113.043 288.324ZM118.635 291.136C118.004 291.136 117.46 290.997 117.002 290.719C116.548 290.438 116.197 290.045 115.95 289.543C115.706 289.037 115.583 288.449 115.583 287.778C115.583 287.108 115.706 286.517 115.95 286.006C116.197 285.491 116.541 285.091 116.981 284.804C117.424 284.514 117.941 284.369 118.532 284.369C118.873 284.369 119.21 284.426 119.542 284.54C119.875 284.653 120.177 284.838 120.45 285.094C120.723 285.347 120.94 285.682 121.102 286.099C121.264 286.517 121.345 287.031 121.345 287.642V288.068H116.299V287.199H120.322C120.322 286.83 120.248 286.5 120.1 286.21C119.956 285.92 119.748 285.692 119.478 285.524C119.211 285.357 118.896 285.273 118.532 285.273C118.132 285.273 117.785 285.372 117.493 285.571C117.203 285.767 116.98 286.023 116.824 286.338C116.667 286.653 116.589 286.991 116.589 287.352V287.932C116.589 288.426 116.674 288.845 116.845 289.189C117.018 289.53 117.258 289.79 117.565 289.969C117.872 290.145 118.228 290.233 118.635 290.233C118.899 290.233 119.137 290.196 119.35 290.122C119.566 290.045 119.752 289.932 119.909 289.781C120.065 289.628 120.186 289.437 120.271 289.21L121.243 289.483C121.14 289.812 120.968 290.102 120.727 290.352C120.485 290.599 120.187 290.793 119.832 290.932C119.477 291.068 119.078 291.136 118.635 291.136Z" fill="black" fill-opacity="0.4"/>
<path d="M133.318 291L130.932 282.273H132.006L133.83 289.381H133.915L135.773 282.273H136.966L138.824 289.381H138.909L140.733 282.273H141.807L139.421 291H138.33L136.404 284.045H136.335L134.409 291H133.318ZM145.122 291.136C144.492 291.136 143.948 290.997 143.49 290.719C143.036 290.438 142.685 290.045 142.438 289.543C142.193 289.037 142.071 288.449 142.071 287.778C142.071 287.108 142.193 286.517 142.438 286.006C142.685 285.491 143.029 285.091 143.469 284.804C143.912 284.514 144.429 284.369 145.02 284.369C145.361 284.369 145.698 284.426 146.03 284.54C146.362 284.653 146.665 284.838 146.938 285.094C147.21 285.347 147.428 285.682 147.59 286.099C147.752 286.517 147.833 287.031 147.833 287.642V288.068H142.787V287.199H146.81C146.81 286.83 146.736 286.5 146.588 286.21C146.443 285.92 146.236 285.692 145.966 285.524C145.699 285.357 145.384 285.273 145.02 285.273C144.62 285.273 144.273 285.372 143.98 285.571C143.691 285.767 143.468 286.023 143.311 286.338C143.155 286.653 143.077 286.991 143.077 287.352V287.932C143.077 288.426 143.162 288.845 143.333 289.189C143.506 289.53 143.746 289.79 144.053 289.969C144.36 290.145 144.716 290.233 145.122 290.233C145.387 290.233 145.625 290.196 145.838 290.122C146.054 290.045 146.24 289.932 146.397 289.781C146.553 289.628 146.674 289.437 146.759 289.21L147.73 289.483C147.628 289.812 147.456 290.102 147.215 290.352C146.973 290.599 146.675 290.793 146.32 290.932C145.965 291.068 145.566 291.136 145.122 291.136ZM151.834 291.136C151.289 291.136 150.807 290.999 150.389 290.723C149.972 290.445 149.645 290.053 149.409 289.547C149.174 289.038 149.056 288.438 149.056 287.744C149.056 287.057 149.174 286.46 149.409 285.955C149.645 285.449 149.973 285.058 150.394 284.783C150.814 284.507 151.3 284.369 151.851 284.369C152.277 284.369 152.614 284.44 152.861 284.582C153.111 284.722 153.301 284.881 153.432 285.06C153.566 285.236 153.669 285.381 153.743 285.494H153.828V282.273H154.834V291H153.862V289.994H153.743C153.669 290.114 153.564 290.264 153.428 290.446C153.291 290.625 153.097 290.786 152.844 290.928C152.591 291.067 152.254 291.136 151.834 291.136ZM151.97 290.233C152.374 290.233 152.715 290.128 152.993 289.918C153.272 289.705 153.483 289.411 153.628 289.036C153.773 288.658 153.845 288.222 153.845 287.727C153.845 287.239 153.774 286.811 153.632 286.445C153.49 286.075 153.28 285.788 153.002 285.584C152.723 285.376 152.379 285.273 151.97 285.273C151.544 285.273 151.189 285.382 150.905 285.601C150.624 285.817 150.412 286.111 150.27 286.483C150.131 286.852 150.061 287.267 150.061 287.727C150.061 288.193 150.132 288.616 150.274 288.997C150.419 289.375 150.632 289.676 150.914 289.901C151.198 290.122 151.55 290.233 151.97 290.233Z" fill="black" fill-opacity="0.4"/>
<path d="M164.699 283.21V282.273H171.244V283.21H168.5V291H167.443V283.21H164.699ZM173.744 287.062V291H172.739V282.273H173.744V285.477H173.83C173.983 285.139 174.213 284.871 174.52 284.672C174.83 284.47 175.242 284.369 175.756 284.369C176.202 284.369 176.592 284.459 176.928 284.638C177.263 284.814 177.523 285.085 177.708 285.452C177.895 285.815 177.989 286.278 177.989 286.841V291H176.983V286.909C176.983 286.389 176.848 285.987 176.578 285.703C176.311 285.416 175.94 285.273 175.466 285.273C175.137 285.273 174.841 285.342 174.58 285.482C174.321 285.621 174.117 285.824 173.966 286.091C173.818 286.358 173.744 286.682 173.744 287.062ZM183.954 288.324V284.455H184.959V291H183.954V289.892H183.885C183.732 290.224 183.493 290.507 183.17 290.74C182.846 290.97 182.437 291.085 181.942 291.085C181.533 291.085 181.17 290.996 180.851 290.817C180.533 290.635 180.283 290.362 180.101 289.999C179.92 289.632 179.829 289.17 179.829 288.614V284.455H180.834V288.545C180.834 289.023 180.968 289.403 181.235 289.688C181.505 289.972 181.849 290.114 182.266 290.114C182.516 290.114 182.77 290.05 183.029 289.922C183.29 289.794 183.509 289.598 183.685 289.334C183.864 289.07 183.954 288.733 183.954 288.324Z" fill="black" fill-opacity="0.4"/>
<path d="M200.629 291V282.273H205.862V283.21H201.685V286.159H205.469V287.097H201.685V291H200.629ZM207.465 291V284.455H208.436V285.443H208.505C208.624 285.119 208.84 284.857 209.152 284.655C209.465 284.453 209.817 284.352 210.209 284.352C210.283 284.352 210.375 284.354 210.486 284.357C210.597 284.359 210.681 284.364 210.738 284.369V285.392C210.703 285.384 210.625 285.371 210.503 285.354C210.384 285.334 210.257 285.324 210.124 285.324C209.806 285.324 209.522 285.391 209.272 285.524C209.025 285.655 208.828 285.837 208.684 286.07C208.542 286.3 208.471 286.562 208.471 286.858V291H207.465ZM211.93 291V284.455H212.935V291H211.93ZM212.441 283.364C212.245 283.364 212.076 283.297 211.934 283.163C211.795 283.03 211.725 282.869 211.725 282.682C211.725 282.494 211.795 282.334 211.934 282.2C212.076 282.067 212.245 282 212.441 282C212.637 282 212.805 282.067 212.944 282.2C213.086 282.334 213.157 282.494 213.157 282.682C213.157 282.869 213.086 283.03 212.944 283.163C212.805 283.297 212.637 283.364 212.441 283.364Z" fill="black" fill-opacity="0.4"/>
<path d="M234.871 284.455C234.82 284.023 234.613 283.688 234.249 283.449C233.886 283.21 233.44 283.091 232.911 283.091C232.525 283.091 232.187 283.153 231.897 283.278C231.61 283.403 231.386 283.575 231.224 283.794C231.065 284.013 230.985 284.261 230.985 284.54C230.985 284.773 231.04 284.973 231.151 285.141C231.265 285.305 231.41 285.443 231.586 285.554C231.762 285.662 231.947 285.751 232.14 285.822C232.333 285.891 232.511 285.946 232.673 285.989L233.559 286.227C233.786 286.287 234.039 286.369 234.317 286.474C234.599 286.58 234.867 286.723 235.123 286.905C235.381 287.084 235.594 287.314 235.762 287.595C235.93 287.876 236.013 288.222 236.013 288.631C236.013 289.102 235.89 289.528 235.643 289.909C235.398 290.29 235.04 290.592 234.569 290.817C234.1 291.041 233.53 291.153 232.86 291.153C232.235 291.153 231.694 291.053 231.236 290.851C230.782 290.649 230.424 290.368 230.163 290.007C229.904 289.646 229.758 289.227 229.724 288.75H230.815C230.843 289.08 230.954 289.352 231.147 289.568C231.343 289.781 231.59 289.94 231.888 290.045C232.19 290.148 232.513 290.199 232.86 290.199C233.263 290.199 233.626 290.134 233.947 290.003C234.268 289.869 234.522 289.685 234.709 289.449C234.897 289.21 234.991 288.932 234.991 288.614C234.991 288.324 234.91 288.088 234.748 287.906C234.586 287.724 234.373 287.577 234.109 287.463C233.844 287.349 233.559 287.25 233.252 287.165L232.178 286.858C231.496 286.662 230.957 286.382 230.559 286.018C230.161 285.655 229.962 285.179 229.962 284.591C229.962 284.102 230.094 283.676 230.359 283.312C230.626 282.946 230.984 282.662 231.432 282.46C231.884 282.256 232.388 282.153 232.945 282.153C233.508 282.153 234.008 282.254 234.445 282.456C234.883 282.655 235.229 282.928 235.485 283.274C235.744 283.621 235.88 284.014 235.894 284.455H234.871ZM239.541 291.153C239.126 291.153 238.75 291.075 238.412 290.919C238.073 290.76 237.805 290.531 237.606 290.233C237.407 289.932 237.308 289.568 237.308 289.142C237.308 288.767 237.382 288.463 237.529 288.23C237.677 287.994 237.875 287.81 238.122 287.676C238.369 287.543 238.642 287.443 238.94 287.378C239.241 287.31 239.544 287.256 239.848 287.216C240.245 287.165 240.568 287.126 240.815 287.101C241.065 287.072 241.247 287.026 241.36 286.96C241.477 286.895 241.535 286.781 241.535 286.619V286.585C241.535 286.165 241.42 285.838 241.19 285.605C240.963 285.372 240.617 285.256 240.154 285.256C239.674 285.256 239.298 285.361 239.025 285.571C238.752 285.781 238.561 286.006 238.45 286.244L237.495 285.903C237.666 285.506 237.893 285.196 238.177 284.974C238.464 284.75 238.777 284.594 239.115 284.506C239.456 284.415 239.791 284.369 240.12 284.369C240.331 284.369 240.572 284.395 240.845 284.446C241.12 284.494 241.386 284.595 241.642 284.749C241.9 284.902 242.115 285.134 242.285 285.443C242.456 285.753 242.541 286.168 242.541 286.688V291H241.535V290.114H241.484C241.416 290.256 241.302 290.408 241.143 290.57C240.984 290.732 240.772 290.869 240.508 290.983C240.244 291.097 239.921 291.153 239.541 291.153ZM239.694 290.25C240.092 290.25 240.427 290.172 240.7 290.016C240.975 289.859 241.183 289.658 241.322 289.411C241.464 289.163 241.535 288.903 241.535 288.631V287.71C241.492 287.761 241.399 287.808 241.254 287.851C241.112 287.891 240.947 287.926 240.76 287.957C240.575 287.986 240.394 288.011 240.218 288.034C240.045 288.054 239.904 288.071 239.796 288.085C239.535 288.119 239.291 288.175 239.063 288.251C238.839 288.325 238.657 288.437 238.518 288.588C238.382 288.736 238.313 288.937 238.313 289.193C238.313 289.543 238.443 289.807 238.701 289.986C238.963 290.162 239.294 290.25 239.694 290.25ZM247.223 284.455V285.307H243.831V284.455H247.223ZM244.82 282.886H245.825V289.125C245.825 289.409 245.866 289.622 245.949 289.764C246.034 289.903 246.142 289.997 246.273 290.045C246.406 290.091 246.547 290.114 246.695 290.114C246.805 290.114 246.896 290.108 246.967 290.097C247.038 290.082 247.095 290.071 247.138 290.062L247.342 290.966C247.274 290.991 247.179 291.017 247.057 291.043C246.935 291.071 246.78 291.085 246.592 291.085C246.308 291.085 246.03 291.024 245.757 290.902C245.487 290.78 245.263 290.594 245.084 290.344C244.908 290.094 244.82 289.778 244.82 289.398V282.886Z" fill="black" fill-opacity="0.4"/>
<path d="M265.15 284.455C265.099 284.023 264.892 283.688 264.528 283.449C264.164 283.21 263.718 283.091 263.19 283.091C262.804 283.091 262.466 283.153 262.176 283.278C261.889 283.403 261.664 283.575 261.502 283.794C261.343 284.013 261.264 284.261 261.264 284.54C261.264 284.773 261.319 284.973 261.43 285.141C261.544 285.305 261.689 285.443 261.865 285.554C262.041 285.662 262.225 285.751 262.419 285.822C262.612 285.891 262.789 285.946 262.951 285.989L263.838 286.227C264.065 286.287 264.318 286.369 264.596 286.474C264.877 286.58 265.146 286.723 265.402 286.905C265.66 287.084 265.873 287.314 266.041 287.595C266.208 287.876 266.292 288.222 266.292 288.631C266.292 289.102 266.169 289.528 265.921 289.909C265.677 290.29 265.319 290.592 264.848 290.817C264.379 291.041 263.809 291.153 263.139 291.153C262.514 291.153 261.973 291.053 261.515 290.851C261.061 290.649 260.703 290.368 260.441 290.007C260.183 289.646 260.037 289.227 260.002 288.75H261.093C261.122 289.08 261.233 289.352 261.426 289.568C261.622 289.781 261.869 289.94 262.167 290.045C262.468 290.148 262.792 290.199 263.139 290.199C263.542 290.199 263.904 290.134 264.225 290.003C264.546 289.869 264.801 289.685 264.988 289.449C265.176 289.21 265.27 288.932 265.27 288.614C265.27 288.324 265.189 288.088 265.027 287.906C264.865 287.724 264.652 287.577 264.387 287.463C264.123 287.349 263.838 287.25 263.531 287.165L262.457 286.858C261.775 286.662 261.235 286.382 260.838 286.018C260.44 285.655 260.241 285.179 260.241 284.591C260.241 284.102 260.373 283.676 260.637 283.312C260.904 282.946 261.262 282.662 261.711 282.46C262.163 282.256 262.667 282.153 263.224 282.153C263.787 282.153 264.287 282.254 264.724 282.456C265.162 282.655 265.508 282.928 265.764 283.274C266.022 283.621 266.159 284.014 266.173 284.455H265.15ZM272.018 288.324V284.455H273.024V291H272.018V289.892H271.95C271.797 290.224 271.558 290.507 271.234 290.74C270.91 290.97 270.501 291.085 270.007 291.085C269.598 291.085 269.234 290.996 268.916 290.817C268.598 290.635 268.348 290.362 268.166 289.999C267.984 289.632 267.893 289.17 267.893 288.614V284.455H268.899V288.545C268.899 289.023 269.033 289.403 269.3 289.688C269.57 289.972 269.913 290.114 270.331 290.114C270.581 290.114 270.835 290.05 271.094 289.922C271.355 289.794 271.574 289.598 271.75 289.334C271.929 289.07 272.018 288.733 272.018 288.324ZM275.872 287.062V291H274.866V284.455H275.838V285.477H275.923C276.076 285.145 276.309 284.878 276.622 284.676C276.934 284.472 277.338 284.369 277.832 284.369C278.275 284.369 278.663 284.46 278.995 284.642C279.328 284.821 279.586 285.094 279.771 285.46C279.956 285.824 280.048 286.284 280.048 286.841V291H279.042V286.909C279.042 286.395 278.909 285.994 278.642 285.707C278.375 285.418 278.008 285.273 277.542 285.273C277.221 285.273 276.934 285.342 276.681 285.482C276.431 285.621 276.234 285.824 276.089 286.091C275.944 286.358 275.872 286.682 275.872 287.062Z" fill="black" fill-opacity="0.4"/>
<path d="M319 217C314.07 210.386 302.825 197.323 297.279 197.984C290.347 198.811 284.339 208.732 276.483 208.732C268.626 208.732 261.981 183.102 252.451 189.717C231.948 203.947 236.738 181.449 218.252 189.717C203.464 196.331 189.599 188.063 184.516 183.102C178.662 178.693 162.61 170.37 145.233 172.354C123.513 174.835 105.951 172.354 96.7082 156.646C93.6927 151.521 80.071 133.496 63.4338 140.11C46.7966 146.724 28.7729 115.307 26 112" stroke="#1C1C1C" stroke-width="3" stroke-linecap="round" stroke-linejoin="round"/>
<path d="M309 205.908C305.275 197.741 294.102 182.008 279.204 184.408C260.581 187.408 254.27 202.766 249.674 205.908C233.445 217 236.106 205.908 219.877 176.408C196.425 133.776 191.411 176.408 178.375 176.408C169.33 176.408 166.279 143.429 140.066 155.408C127.828 161 116.921 160.408 111.334 147.408C105.747 134.408 88.4547 124.408 76.483 130.408C64.5113 136.408 55.6767 130.855 52.8057 127.408C43.2283 115.908 36.0453 124.908 27 134.408" stroke="#A8C5DA" stroke-width="3" stroke-linecap="round" stroke-linejoin="round"/>
<g filter="url(#filter0_d_1928_17683)">
<circle cx="3" cy="3" r="4.5" transform="matrix(-1 0 0 1 259 154)" fill="#A8C5DA" stroke="white" stroke-width="3"/>
</g>
<rect x="209" y="119" width="95" height="28" rx="8" fill="black" fill-opacity="0.8"/>
<path d="M218.399 137V128.273H223.632V129.21H219.455V132.159H223.24V133.097H219.455V137H218.399ZM225.235 137V130.455H226.206V131.443H226.275C226.394 131.119 226.61 130.857 226.922 130.655C227.235 130.453 227.587 130.352 227.979 130.352C228.053 130.352 228.145 130.354 228.256 130.357C228.367 130.359 228.451 130.364 228.508 130.369V131.392C228.474 131.384 228.395 131.371 228.273 131.354C228.154 131.334 228.028 131.324 227.894 131.324C227.576 131.324 227.292 131.391 227.042 131.524C226.795 131.655 226.599 131.837 226.454 132.07C226.312 132.3 226.241 132.562 226.241 132.858V137H225.235ZM229.7 137V130.455H230.705V137H229.7ZM230.211 129.364C230.015 129.364 229.846 129.297 229.704 129.163C229.565 129.03 229.495 128.869 229.495 128.682C229.495 128.494 229.565 128.334 229.704 128.2C229.846 128.067 230.015 128 230.211 128C230.407 128 230.575 128.067 230.714 128.2C230.856 128.334 230.927 128.494 230.927 128.682C230.927 128.869 230.856 129.03 230.714 129.163C230.575 129.297 230.407 129.364 230.211 129.364ZM233.28 137.068C233.07 137.068 232.89 136.993 232.739 136.842C232.589 136.692 232.513 136.511 232.513 136.301C232.513 136.091 232.589 135.911 232.739 135.76C232.89 135.609 233.07 135.534 233.28 135.534C233.491 135.534 233.671 135.609 233.822 135.76C233.972 135.911 234.047 136.091 234.047 136.301C234.047 136.44 234.012 136.568 233.941 136.685C233.873 136.801 233.78 136.895 233.664 136.966C233.55 137.034 233.422 137.068 233.28 137.068ZM233.28 132.21C233.07 132.21 232.89 132.135 232.739 131.984C232.589 131.834 232.513 131.653 232.513 131.443C232.513 131.233 232.589 131.053 232.739 130.902C232.89 130.751 233.07 130.676 233.28 130.676C233.491 130.676 233.671 130.751 233.822 130.902C233.972 131.053 234.047 131.233 234.047 131.443C234.047 131.582 234.012 131.71 233.941 131.827C233.873 131.943 233.78 132.037 233.664 132.108C233.55 132.176 233.422 132.21 233.28 132.21ZM241.937 137.119C241.437 137.119 240.987 137.02 240.586 136.821C240.186 136.622 239.865 136.349 239.623 136.003C239.382 135.656 239.25 135.261 239.227 134.818H240.25C240.29 135.213 240.469 135.54 240.787 135.798C241.108 136.054 241.491 136.182 241.937 136.182C242.295 136.182 242.613 136.098 242.892 135.93C243.173 135.763 243.393 135.533 243.552 135.24C243.714 134.945 243.795 134.611 243.795 134.239C243.795 133.858 243.711 133.518 243.544 133.22C243.379 132.919 243.152 132.682 242.862 132.509C242.572 132.335 242.241 132.247 241.869 132.244C241.602 132.241 241.328 132.283 241.047 132.368C240.765 132.45 240.534 132.557 240.352 132.688L239.363 132.568L239.892 128.273H244.426V129.21H240.778L240.471 131.784H240.523C240.702 131.642 240.926 131.524 241.196 131.43C241.466 131.337 241.747 131.29 242.04 131.29C242.574 131.29 243.05 131.418 243.467 131.673C243.888 131.926 244.217 132.273 244.456 132.713C244.697 133.153 244.818 133.656 244.818 134.222C244.818 134.778 244.693 135.276 244.443 135.713C244.196 136.148 243.855 136.491 243.42 136.744C242.986 136.994 242.491 137.119 241.937 137.119ZM247.7 135.807L247.632 136.267C247.583 136.591 247.509 136.938 247.41 137.307C247.313 137.676 247.213 138.024 247.107 138.351C247.002 138.678 246.916 138.938 246.847 139.131H246.08C246.117 138.949 246.166 138.709 246.225 138.411C246.285 138.112 246.345 137.778 246.404 137.409C246.467 137.043 246.518 136.668 246.558 136.284L246.609 135.807H247.7ZM249.546 137V136.233L252.427 133.08C252.765 132.71 253.043 132.389 253.262 132.116C253.481 131.841 253.643 131.582 253.748 131.341C253.856 131.097 253.91 130.841 253.91 130.574C253.91 130.267 253.836 130.001 253.688 129.777C253.543 129.553 253.344 129.379 253.091 129.257C252.839 129.135 252.555 129.074 252.239 129.074C251.904 129.074 251.611 129.143 251.361 129.283C251.114 129.419 250.922 129.611 250.786 129.858C250.653 130.105 250.586 130.395 250.586 130.727H249.58C249.58 130.216 249.698 129.767 249.934 129.381C250.17 128.994 250.491 128.693 250.897 128.477C251.306 128.261 251.765 128.153 252.273 128.153C252.785 128.153 253.238 128.261 253.633 128.477C254.028 128.693 254.337 128.984 254.562 129.351C254.786 129.717 254.898 130.125 254.898 130.574C254.898 130.895 254.84 131.209 254.724 131.516C254.61 131.82 254.411 132.159 254.127 132.534C253.846 132.906 253.455 133.361 252.955 133.898L250.995 135.994V136.062H255.052V137H249.546ZM259.539 137.119C259.039 137.119 258.589 137.02 258.188 136.821C257.787 136.622 257.466 136.349 257.225 136.003C256.983 135.656 256.851 135.261 256.829 134.818H257.851C257.891 135.213 258.07 135.54 258.388 135.798C258.709 136.054 259.093 136.182 259.539 136.182C259.897 136.182 260.215 136.098 260.493 135.93C260.775 135.763 260.995 135.533 261.154 135.24C261.316 134.945 261.397 134.611 261.397 134.239C261.397 133.858 261.313 133.518 261.145 133.22C260.981 132.919 260.753 132.682 260.464 132.509C260.174 132.335 259.843 132.247 259.471 132.244C259.204 132.241 258.93 132.283 258.648 132.368C258.367 132.45 258.135 132.557 257.954 132.688L256.965 132.568L257.493 128.273H262.028V129.21H258.38L258.073 131.784H258.124C258.303 131.642 258.528 131.524 258.797 131.43C259.067 131.337 259.349 131.29 259.641 131.29C260.175 131.29 260.651 131.418 261.069 131.673C261.489 131.926 261.819 132.273 262.057 132.713C262.299 133.153 262.42 133.656 262.42 134.222C262.42 134.778 262.295 135.276 262.045 135.713C261.797 136.148 261.456 136.491 261.022 136.744C260.587 136.994 260.093 137.119 259.539 137.119ZM267.01 137.119C266.652 137.114 266.294 137.045 265.936 136.915C265.578 136.784 265.252 136.564 264.956 136.254C264.661 135.942 264.423 135.52 264.244 134.989C264.066 134.455 263.976 133.784 263.976 132.977C263.976 132.205 264.048 131.52 264.193 130.923C264.338 130.324 264.548 129.82 264.824 129.411C265.1 128.999 265.432 128.686 265.821 128.473C266.213 128.26 266.655 128.153 267.146 128.153C267.635 128.153 268.07 128.251 268.45 128.447C268.834 128.641 269.146 128.911 269.388 129.257C269.629 129.604 269.786 130.003 269.857 130.455H268.817C268.72 130.062 268.533 129.737 268.254 129.479C267.976 129.22 267.607 129.091 267.146 129.091C266.47 129.091 265.938 129.385 265.548 129.973C265.162 130.561 264.968 131.386 264.965 132.449H265.033C265.192 132.207 265.381 132.001 265.6 131.831C265.821 131.658 266.066 131.524 266.333 131.43C266.6 131.337 266.882 131.29 267.181 131.29C267.681 131.29 268.138 131.415 268.553 131.665C268.968 131.912 269.3 132.254 269.55 132.692C269.8 133.126 269.925 133.625 269.925 134.188C269.925 134.727 269.804 135.222 269.563 135.67C269.321 136.116 268.982 136.472 268.544 136.736C268.11 136.997 267.598 137.125 267.01 137.119ZM267.01 136.182C267.368 136.182 267.689 136.092 267.973 135.913C268.26 135.734 268.486 135.494 268.651 135.193C268.818 134.892 268.902 134.557 268.902 134.188C268.902 133.827 268.821 133.499 268.659 133.203C268.5 132.905 268.28 132.668 267.999 132.491C267.72 132.315 267.402 132.227 267.044 132.227C266.774 132.227 266.523 132.281 266.29 132.389C266.057 132.494 265.852 132.639 265.676 132.824C265.503 133.009 265.367 133.22 265.267 133.459C265.168 133.695 265.118 133.943 265.118 134.205C265.118 134.551 265.199 134.875 265.361 135.176C265.526 135.477 265.75 135.72 266.034 135.905C266.321 136.089 266.646 136.182 267.01 136.182ZM272.708 135.807L272.639 136.267C272.591 136.591 272.517 136.938 272.418 137.307C272.321 137.676 272.22 138.024 272.115 138.351C272.01 138.678 271.923 138.938 271.855 139.131H271.088C271.125 138.949 271.173 138.709 271.233 138.411C271.293 138.112 271.352 137.778 271.412 137.409C271.475 137.043 271.526 136.668 271.566 136.284L271.617 135.807H272.708ZM277.105 137.119C276.605 137.119 276.155 137.02 275.754 136.821C275.354 136.622 275.033 136.349 274.791 136.003C274.55 135.656 274.418 135.261 274.395 134.818H275.418C275.458 135.213 275.637 135.54 275.955 135.798C276.276 136.054 276.659 136.182 277.105 136.182C277.463 136.182 277.781 136.098 278.06 135.93C278.341 135.763 278.561 135.533 278.72 135.24C278.882 134.945 278.963 134.611 278.963 134.239C278.963 133.858 278.879 133.518 278.712 133.22C278.547 132.919 278.32 132.682 278.03 132.509C277.74 132.335 277.409 132.247 277.037 132.244C276.77 132.241 276.496 132.283 276.215 132.368C275.933 132.45 275.702 132.557 275.52 132.688L274.531 132.568L275.06 128.273H279.594V129.21H275.946L275.639 131.784H275.691C275.869 131.642 276.094 131.524 276.364 131.43C276.634 131.337 276.915 131.29 277.208 131.29C277.742 131.29 278.218 131.418 278.635 131.673C279.056 131.926 279.385 132.273 279.624 132.713C279.865 133.153 279.986 133.656 279.986 134.222C279.986 134.778 279.861 135.276 279.611 135.713C279.364 136.148 279.023 136.491 278.588 136.744C278.154 136.994 277.659 137.119 277.105 137.119ZM284.457 128.153C284.815 128.156 285.173 128.224 285.531 128.358C285.889 128.491 286.216 128.713 286.511 129.023C286.807 129.33 287.044 129.749 287.223 130.28C287.402 130.811 287.491 131.477 287.491 132.278C287.491 133.054 287.417 133.743 287.27 134.345C287.125 134.945 286.915 135.45 286.639 135.862C286.366 136.274 286.034 136.587 285.642 136.8C285.253 137.013 284.812 137.119 284.321 137.119C283.832 137.119 283.396 137.023 283.013 136.83C282.632 136.634 282.319 136.362 282.075 136.016C281.834 135.666 281.679 135.261 281.611 134.801H282.65C282.744 135.202 282.93 135.533 283.209 135.794C283.49 136.053 283.861 136.182 284.321 136.182C284.994 136.182 285.525 135.888 285.915 135.3C286.307 134.712 286.503 133.881 286.503 132.807H286.434C286.275 133.045 286.086 133.251 285.868 133.425C285.649 133.598 285.406 133.732 285.139 133.825C284.872 133.919 284.588 133.966 284.287 133.966C283.787 133.966 283.328 133.842 282.91 133.595C282.496 133.345 282.163 133.003 281.913 132.568C281.666 132.131 281.542 131.631 281.542 131.068C281.542 130.534 281.662 130.045 281.9 129.602C282.142 129.156 282.48 128.801 282.915 128.537C283.352 128.273 283.866 128.145 284.457 128.153ZM284.457 129.091C284.099 129.091 283.777 129.18 283.49 129.359C283.206 129.536 282.98 129.774 282.812 130.075C282.648 130.374 282.565 130.705 282.565 131.068C282.565 131.432 282.645 131.763 282.804 132.061C282.966 132.357 283.186 132.592 283.464 132.768C283.746 132.942 284.065 133.028 284.423 133.028C284.693 133.028 284.944 132.976 285.177 132.871C285.41 132.763 285.613 132.616 285.787 132.432C285.963 132.244 286.101 132.033 286.2 131.797C286.3 131.558 286.349 131.31 286.349 131.051C286.349 130.71 286.267 130.391 286.102 130.092C285.94 129.794 285.716 129.553 285.429 129.368C285.145 129.183 284.821 129.091 284.457 129.091ZM291.963 137.119C291.377 137.119 290.86 137.016 290.411 136.808C289.965 136.598 289.617 136.31 289.367 135.943C289.117 135.574 288.994 135.153 288.997 134.682C288.994 134.312 289.066 133.972 289.214 133.659C289.362 133.344 289.563 133.081 289.819 132.871C290.078 132.658 290.366 132.523 290.684 132.466V132.415C290.267 132.307 289.934 132.072 289.687 131.712C289.44 131.348 289.318 130.935 289.32 130.472C289.318 130.028 289.43 129.632 289.657 129.283C289.884 128.933 290.197 128.658 290.595 128.456C290.995 128.254 291.451 128.153 291.963 128.153C292.468 128.153 292.92 128.254 293.318 128.456C293.715 128.658 294.028 128.933 294.255 129.283C294.485 129.632 294.602 130.028 294.605 130.472C294.602 130.935 294.475 131.348 294.225 131.712C293.978 132.072 293.65 132.307 293.241 132.415V132.466C293.556 132.523 293.84 132.658 294.093 132.871C294.346 133.081 294.548 133.344 294.698 133.659C294.849 133.972 294.926 134.312 294.928 134.682C294.926 135.153 294.798 135.574 294.545 135.943C294.295 136.31 293.947 136.598 293.501 136.808C293.058 137.016 292.545 137.119 291.963 137.119ZM291.963 136.182C292.357 136.182 292.698 136.118 292.985 135.99C293.272 135.862 293.494 135.682 293.65 135.449C293.806 135.216 293.886 134.943 293.889 134.631C293.886 134.301 293.801 134.01 293.633 133.757C293.465 133.504 293.237 133.305 292.947 133.161C292.66 133.016 292.332 132.943 291.963 132.943C291.59 132.943 291.258 133.016 290.965 133.161C290.676 133.305 290.447 133.504 290.279 133.757C290.115 134.01 290.034 134.301 290.036 134.631C290.034 134.943 290.109 135.216 290.262 135.449C290.419 135.682 290.642 135.862 290.931 135.99C291.221 136.118 291.565 136.182 291.963 136.182ZM291.963 132.04C292.275 132.04 292.552 131.977 292.794 131.852C293.038 131.727 293.23 131.553 293.369 131.328C293.508 131.104 293.579 130.841 293.582 130.54C293.579 130.244 293.509 129.987 293.373 129.768C293.237 129.547 293.048 129.376 292.806 129.257C292.565 129.135 292.284 129.074 291.963 129.074C291.636 129.074 291.35 129.135 291.106 129.257C290.862 129.376 290.673 129.547 290.539 129.768C290.406 129.987 290.34 130.244 290.343 130.54C290.34 130.841 290.407 131.104 290.544 131.328C290.683 131.553 290.874 131.727 291.119 131.852C291.363 131.977 291.644 132.04 291.963 132.04Z" fill="white"/>
</g>
<defs>
<filter id="filter0_d_1928_17683" x="248" y="151" width="16" height="16" filterUnits="userSpaceOnUse" color-interpolation-filters="sRGB">
<feFlood flood-opacity="0" result="BackgroundImageFix"/>
<feColorMatrix in="SourceAlpha" type="matrix" values="0 0 0 0 0 0 0 0 0 0 0 0 0 0 0 0 0 0 127 0" result="hardAlpha"/>
<feOffset dy="2"/>
<feGaussianBlur stdDeviation="1"/>
<feComposite in2="hardAlpha" operator="out"/>
<feColorMatrix type="matrix" values="0 0 0 0 0 0 0 0 0 0 0 0 0 0 0 0 0 0 0.1 0"/>
<feBlend mode="normal" in2="BackgroundImageFix" result="effect1_dropShadow_1928_17683"/>
<feBlend mode="normal" in="SourceGraphic" in2="effect1_dropShadow_1928_17683" result="shape"/>
</filter>
<clipPath id="clip0_1928_17683">
<rect width="310" height="320" rx="16" fill="white"/>
</clipPath>
</defs>
</svg>
