<svg width="310" height="320" viewBox="0 0 310 320" fill="none" xmlns="http://www.w3.org/2000/svg">
<rect width="310" height="320" rx="16" fill="#F7F9FB"/>
<path d="M24.5568 30.3643V28.8182H32.6804V30.3643H29.5334V39H27.7038V30.3643H24.5568ZM33.3739 39V31.3636H35.119V32.6364H35.1985C35.3377 32.1955 35.5763 31.8558 35.9144 31.6172C36.2558 31.3752 36.6452 31.2543 37.0827 31.2543C37.1822 31.2543 37.2932 31.2592 37.4158 31.2692C37.5418 31.2758 37.6462 31.2874 37.729 31.304V32.9595C37.6528 32.933 37.5318 32.9098 37.3661 32.8899C37.2037 32.8667 37.0463 32.8551 36.8938 32.8551C36.5657 32.8551 36.2707 32.9264 36.0089 33.0689C35.7504 33.2081 35.5465 33.402 35.3974 33.6506C35.2482 33.8991 35.1737 34.1858 35.1737 34.5107V39H33.3739ZM40.9854 39.1541C40.5015 39.1541 40.0657 39.0679 39.6779 38.8956C39.2934 38.7199 38.9885 38.4614 38.7631 38.12C38.5411 37.7786 38.43 37.3577 38.43 36.8572C38.43 36.4264 38.5096 36.0701 38.6687 35.7884C38.8278 35.5066 39.0449 35.2812 39.32 35.1122C39.5951 34.9432 39.9049 34.8156 40.2496 34.7294C40.5977 34.6399 40.9573 34.5753 41.3285 34.5355C41.7759 34.4891 42.1388 34.4477 42.4173 34.4112C42.6957 34.3714 42.8978 34.3118 43.0238 34.2322C43.1531 34.1494 43.2177 34.0218 43.2177 33.8494V33.8196C43.2177 33.4451 43.1067 33.1551 42.8846 32.9496C42.6625 32.7441 42.3427 32.6413 41.9251 32.6413C41.4843 32.6413 41.1346 32.7375 40.8761 32.9297C40.6209 33.1219 40.4485 33.349 40.359 33.6108L38.6786 33.3722C38.8112 32.9081 39.0299 32.5204 39.3349 32.2088C39.6398 31.8939 40.0127 31.6586 40.4535 31.5028C40.8943 31.3438 41.3815 31.2642 41.9151 31.2642C42.283 31.2642 42.6493 31.3073 43.0138 31.3935C43.3784 31.4796 43.7115 31.6222 44.0131 31.821C44.3147 32.0166 44.5567 32.2834 44.739 32.6214C44.9246 32.9595 45.0174 33.3821 45.0174 33.8892V39H43.2873V37.951H43.2276C43.1183 38.1631 42.9641 38.362 42.7653 38.5476C42.5697 38.7299 42.3228 38.8774 42.0245 38.9901C41.7295 39.0994 41.3832 39.1541 40.9854 39.1541ZM41.4528 37.8317C41.814 37.8317 42.1272 37.7604 42.3924 37.6179C42.6576 37.4721 42.8614 37.2798 43.0039 37.0412C43.1497 36.8026 43.2227 36.5424 43.2227 36.2607V35.3608C43.1663 35.4072 43.0702 35.4503 42.9343 35.4901C42.8017 35.5298 42.6526 35.5646 42.4869 35.5945C42.3211 35.6243 42.1571 35.6508 41.9947 35.674C41.8323 35.6972 41.6914 35.7171 41.5721 35.7337C41.3036 35.7701 41.0633 35.8298 40.8512 35.9126C40.6391 35.9955 40.4717 36.1115 40.3491 36.2607C40.2264 36.4065 40.1651 36.5954 40.1651 36.8274C40.1651 37.1589 40.2861 37.4091 40.5281 37.5781C40.77 37.7472 41.0782 37.8317 41.4528 37.8317ZM50.695 31.3636V32.7557H46.1808V31.3636H50.695ZM47.3093 39V30.6428C47.3093 30.129 47.4154 29.7015 47.6275 29.3601C47.8429 29.0187 48.1313 28.7635 48.4925 28.5945C48.8538 28.4254 49.2549 28.3409 49.6957 28.3409C50.0072 28.3409 50.284 28.3658 50.5259 28.4155C50.7679 28.4652 50.9469 28.5099 51.0629 28.5497L50.7049 29.9418C50.6287 29.9186 50.5326 29.8954 50.4165 29.8722C50.3005 29.8456 50.1713 29.8324 50.0288 29.8324C49.694 29.8324 49.457 29.9136 49.3178 30.076C49.1819 30.2351 49.114 30.4638 49.114 30.7621V39H47.3093ZM55.9723 31.3636V32.7557H51.4581V31.3636H55.9723ZM52.5866 39V30.6428C52.5866 30.129 52.6927 29.7015 52.9048 29.3601C53.1203 29.0187 53.4086 28.7635 53.7699 28.5945C54.1312 28.4254 54.5322 28.3409 54.973 28.3409C55.2846 28.3409 55.5613 28.3658 55.8033 28.4155C56.0452 28.4652 56.2242 28.5099 56.3402 28.5497L55.9822 29.9418C55.906 29.9186 55.8099 29.8954 55.6939 29.8722C55.5779 29.8456 55.4486 29.8324 55.3061 29.8324C54.9714 29.8324 54.7344 29.9136 54.5952 30.076C54.4593 30.2351 54.3913 30.4638 54.3913 30.7621V39H52.5866ZM57.3817 39V31.3636H59.1815V39H57.3817ZM58.2866 30.2798C58.0015 30.2798 57.7563 30.1854 57.5508 29.9964C57.3453 29.8042 57.2425 29.5739 57.2425 29.3054C57.2425 29.0336 57.3453 28.8033 57.5508 28.6143C57.7563 28.4221 58.0015 28.326 58.2866 28.326C58.5749 28.326 58.8202 28.4221 59.0224 28.6143C59.2279 28.8033 59.3306 29.0336 59.3306 29.3054C59.3306 29.5739 59.2279 29.8042 59.0224 29.9964C58.8202 30.1854 58.5749 30.2798 58.2866 30.2798ZM64.3631 39.1491C63.6008 39.1491 62.9462 38.9818 62.3993 38.647C61.8558 38.3123 61.4365 37.8499 61.1415 37.2599C60.8498 36.6667 60.704 35.9839 60.704 35.2116C60.704 34.4361 60.8532 33.7517 61.1515 33.1584C61.4498 32.5618 61.8707 32.0978 62.4142 31.7663C62.9611 31.4316 63.6074 31.2642 64.3532 31.2642C64.973 31.2642 65.5215 31.3786 65.9988 31.6072C66.4793 31.8326 66.8622 32.1525 67.1472 32.5668C67.4322 32.9777 67.5946 33.4583 67.6344 34.0085H65.9142C65.8446 33.6406 65.6789 33.334 65.4171 33.0888C65.1586 32.8402 64.8122 32.7159 64.378 32.7159C64.0101 32.7159 63.687 32.8153 63.4086 33.0142C63.1301 33.2098 62.9131 33.4915 62.7573 33.8594C62.6048 34.2273 62.5286 34.6681 62.5286 35.1818C62.5286 35.7022 62.6048 36.1496 62.7573 36.5241C62.9097 36.8954 63.1235 37.1821 63.3986 37.3842C63.677 37.5831 64.0035 37.6825 64.378 37.6825C64.6432 37.6825 64.8801 37.6328 65.089 37.5334C65.3011 37.4306 65.4784 37.2831 65.6209 37.0909C65.7634 36.8987 65.8612 36.665 65.9142 36.3899H67.6344C67.5913 36.9302 67.4322 37.4091 67.1571 37.8267C66.882 38.241 66.5075 38.5658 66.0336 38.8011C65.5596 39.0331 65.0028 39.1491 64.3631 39.1491ZM72.6644 39V28.8182H74.4641V32.6264H74.5387C74.6315 32.4408 74.7624 32.2436 74.9315 32.0348C75.1005 31.8227 75.3292 31.642 75.6175 31.4929C75.9059 31.3404 76.2738 31.2642 76.7212 31.2642C77.3112 31.2642 77.8432 31.415 78.3171 31.7166C78.7944 32.0149 79.1722 32.4574 79.4506 33.044C79.7324 33.6274 79.8732 34.3433 79.8732 35.1918C79.8732 36.0303 79.7357 36.7429 79.4606 37.3295C79.1855 37.9162 78.811 38.3636 78.337 38.6719C77.863 38.9801 77.3261 39.1342 76.7262 39.1342C76.2887 39.1342 75.9258 39.0613 75.6374 38.9155C75.3491 38.7696 75.1171 38.594 74.9414 38.3885C74.7691 38.1797 74.6348 37.9825 74.5387 37.7969H74.4343V39H72.6644ZM74.4293 35.1818C74.4293 35.6757 74.4989 36.1082 74.6381 36.4794C74.7807 36.8506 74.9845 37.1406 75.2496 37.3494C75.5181 37.5549 75.8429 37.6577 76.2241 37.6577C76.6218 37.6577 76.9549 37.5516 77.2234 37.3395C77.4918 37.1241 77.694 36.8307 77.8299 36.4595C77.9691 36.085 78.0387 35.6591 78.0387 35.1818C78.0387 34.7079 77.9708 34.2869 77.8349 33.919C77.699 33.5511 77.4968 33.2628 77.2283 33.054C76.9599 32.8452 76.6251 32.7408 76.2241 32.7408C75.8396 32.7408 75.5131 32.8419 75.2447 33.044C74.9762 33.2462 74.7724 33.5296 74.6332 33.8942C74.4973 34.2588 74.4293 34.688 74.4293 35.1818ZM82.2621 41.8636C82.0168 41.8636 81.7898 41.8438 81.581 41.804C81.3755 41.7675 81.2114 41.7244 81.0888 41.6747L81.5064 40.2727C81.7682 40.349 82.0019 40.3854 82.2074 40.3821C82.4129 40.3788 82.5935 40.3142 82.7493 40.1882C82.9084 40.0656 83.0426 39.8601 83.152 39.5717L83.3061 39.1591L80.5369 31.3636H82.446L84.206 37.1307H84.2855L86.0504 31.3636H87.9645L84.907 39.9247C84.7644 40.3291 84.5755 40.6754 84.3402 40.9638C84.1049 41.2554 83.8165 41.4775 83.4751 41.63C83.1371 41.7857 82.7327 41.8636 82.2621 41.8636ZM94.9048 39L92.0312 28.8182H94.0149L95.8494 36.3004H95.9439L97.9027 28.8182H99.7074L101.671 36.3054H101.761L103.595 28.8182H105.579L102.705 39H100.886L98.8473 31.8558H98.7678L96.7244 39H94.9048ZM109.38 39.1491C108.614 39.1491 107.953 38.9901 107.396 38.6719C106.842 38.3504 106.417 37.8963 106.118 37.3097C105.82 36.7197 105.671 36.0253 105.671 35.2266C105.671 34.4411 105.82 33.7517 106.118 33.1584C106.42 32.5618 106.841 32.0978 107.381 31.7663C107.921 31.4316 108.556 31.2642 109.285 31.2642C109.756 31.2642 110.2 31.3404 110.618 31.4929C111.038 31.642 111.41 31.8741 111.731 32.1889C112.056 32.5038 112.311 32.9048 112.497 33.392C112.682 33.8759 112.775 34.4527 112.775 35.1222V35.674H106.516V34.4609H111.05C111.047 34.1162 110.972 33.8097 110.826 33.5412C110.681 33.2694 110.477 33.0556 110.215 32.8999C109.956 32.7441 109.655 32.6662 109.31 32.6662C108.942 32.6662 108.619 32.7557 108.341 32.9347C108.062 33.1103 107.845 33.3423 107.689 33.6307C107.537 33.9157 107.459 34.2289 107.456 34.5703V35.6293C107.456 36.0734 107.537 36.4545 107.699 36.7727C107.862 37.0876 108.089 37.3295 108.38 37.4986C108.672 37.6643 109.013 37.7472 109.404 37.7472C109.666 37.7472 109.903 37.7107 110.115 37.6378C110.328 37.5616 110.511 37.4505 110.667 37.3047C110.823 37.1589 110.941 36.9782 111.02 36.7628L112.701 36.9517C112.595 37.3958 112.392 37.7836 112.094 38.1151C111.799 38.4432 111.421 38.6984 110.961 38.8807C110.5 39.0597 109.973 39.1491 109.38 39.1491ZM114.377 39V28.8182H116.177V32.6264H116.252C116.344 32.4408 116.475 32.2436 116.644 32.0348C116.813 31.8227 117.042 31.642 117.33 31.4929C117.619 31.3404 117.987 31.2642 118.434 31.2642C119.024 31.2642 119.556 31.415 120.03 31.7166C120.507 32.0149 120.885 32.4574 121.164 33.044C121.445 33.6274 121.586 34.3433 121.586 35.1918C121.586 36.0303 121.449 36.7429 121.173 37.3295C120.898 37.9162 120.524 38.3636 120.05 38.6719C119.576 38.9801 119.039 39.1342 118.439 39.1342C118.002 39.1342 117.639 39.0613 117.35 38.9155C117.062 38.7696 116.83 38.594 116.654 38.3885C116.482 38.1797 116.348 37.9825 116.252 37.7969H116.147V39H114.377ZM116.142 35.1818C116.142 35.6757 116.212 36.1082 116.351 36.4794C116.494 36.8506 116.697 37.1406 116.963 37.3494C117.231 37.5549 117.556 37.6577 117.937 37.6577C118.335 37.6577 118.668 37.5516 118.936 37.3395C119.205 37.1241 119.407 36.8307 119.543 36.4595C119.682 36.085 119.752 35.6591 119.752 35.1818C119.752 34.7079 119.684 34.2869 119.548 33.919C119.412 33.5511 119.21 33.2628 118.941 33.054C118.673 32.8452 118.338 32.7408 117.937 32.7408C117.552 32.7408 117.226 32.8419 116.958 33.044C116.689 33.2462 116.485 33.5296 116.346 33.8942C116.21 34.2588 116.142 34.688 116.142 35.1818ZM129.152 33.3821L127.511 33.5611C127.465 33.3954 127.383 33.2396 127.267 33.0938C127.155 32.9479 127.002 32.8303 126.81 32.7408C126.618 32.6513 126.382 32.6065 126.104 32.6065C125.73 32.6065 125.415 32.6877 125.159 32.8501C124.908 33.0125 124.783 33.223 124.787 33.4815C124.783 33.7036 124.864 33.8842 125.03 34.0234C125.199 34.1626 125.478 34.277 125.865 34.3665L127.168 34.6449C127.891 34.8007 128.427 35.0476 128.779 35.3857C129.133 35.7237 129.312 36.1662 129.316 36.7131C129.312 37.1937 129.172 37.6179 128.893 37.9858C128.618 38.3504 128.235 38.6354 127.745 38.8409C127.254 39.0464 126.691 39.1491 126.054 39.1491C125.12 39.1491 124.367 38.9536 123.797 38.5625C123.227 38.1681 122.887 37.6196 122.778 36.9169L124.533 36.7479C124.613 37.0926 124.782 37.3527 125.04 37.5284C125.299 37.7041 125.635 37.7919 126.049 37.7919C126.477 37.7919 126.82 37.7041 127.078 37.5284C127.34 37.3527 127.471 37.1357 127.471 36.8771C127.471 36.6584 127.387 36.4777 127.218 36.3352C127.052 36.1927 126.793 36.0833 126.442 36.0071L125.14 35.7337C124.407 35.5812 123.865 35.3243 123.514 34.9631C123.163 34.5985 122.989 34.1378 122.992 33.581C122.989 33.1103 123.116 32.7027 123.375 32.358C123.636 32.0099 123.999 31.7415 124.463 31.5526C124.931 31.3603 125.469 31.2642 126.079 31.2642C126.974 31.2642 127.678 31.4548 128.192 31.8359C128.709 32.2171 129.029 32.7325 129.152 33.3821ZM130.8 39V31.3636H132.599V39H130.8ZM131.705 30.2798C131.42 30.2798 131.174 30.1854 130.969 29.9964C130.763 29.8042 130.661 29.5739 130.661 29.3054C130.661 29.0336 130.763 28.8033 130.969 28.6143C131.174 28.4221 131.42 28.326 131.705 28.326C131.993 28.326 132.238 28.4221 132.44 28.6143C132.646 28.8033 132.749 29.0336 132.749 29.3054C132.749 29.5739 132.646 29.8042 132.44 29.9964C132.238 30.1854 131.993 30.2798 131.705 30.2798ZM138.263 31.3636V32.7557H133.873V31.3636H138.263ZM134.957 29.5341H136.757V36.7031C136.757 36.9451 136.793 37.1307 136.866 37.2599C136.943 37.3859 137.042 37.4721 137.165 37.5185C137.287 37.5649 137.423 37.5881 137.572 37.5881C137.685 37.5881 137.788 37.5798 137.881 37.5632C137.977 37.5466 138.05 37.5317 138.099 37.5185L138.403 38.9254C138.306 38.9586 138.169 38.995 137.99 39.0348C137.814 39.0746 137.599 39.0978 137.344 39.1044C136.893 39.1177 136.487 39.0497 136.126 38.9006C135.764 38.7481 135.478 38.5128 135.265 38.1946C135.057 37.8764 134.954 37.4787 134.957 37.0014V29.5341ZM143.067 39.1491C142.301 39.1491 141.64 38.9901 141.083 38.6719C140.53 38.3504 140.104 37.8963 139.806 37.3097C139.507 36.7197 139.358 36.0253 139.358 35.2266C139.358 34.4411 139.507 33.7517 139.806 33.1584C140.107 32.5618 140.528 32.0978 141.069 31.7663C141.609 31.4316 142.243 31.2642 142.973 31.2642C143.443 31.2642 143.887 31.3404 144.305 31.4929C144.726 31.642 145.097 31.8741 145.419 32.1889C145.743 32.5038 145.999 32.9048 146.184 33.392C146.37 33.8759 146.463 34.4527 146.463 35.1222V35.674H140.203V34.4609H144.738C144.734 34.1162 144.66 33.8097 144.514 33.5412C144.368 33.2694 144.164 33.0556 143.902 32.8999C143.644 32.7441 143.342 32.6662 142.998 32.6662C142.63 32.6662 142.306 32.7557 142.028 32.9347C141.75 33.1103 141.533 33.3423 141.377 33.6307C141.224 33.9157 141.146 34.2289 141.143 34.5703V35.6293C141.143 36.0734 141.224 36.4545 141.387 36.7727C141.549 37.0876 141.776 37.3295 142.068 37.4986C142.359 37.6643 142.701 37.7472 143.092 37.7472C143.354 37.7472 143.591 37.7107 143.803 37.6378C144.015 37.5616 144.199 37.4505 144.355 37.3047C144.511 37.1589 144.628 36.9782 144.708 36.7628L146.388 36.9517C146.282 37.3958 146.08 37.7836 145.782 38.1151C145.487 38.4432 145.109 38.6984 144.648 38.8807C144.187 39.0597 143.66 39.1491 143.067 39.1491Z" fill="#1C1C1C"/>
<path d="M31.0227 67C30.929 66.7131 30.8054 66.456 30.652 66.2287C30.5014 65.9986 30.321 65.8026 30.1108 65.6406C29.9034 65.4787 29.6676 65.3551 29.4034 65.2699C29.1392 65.1847 28.8494 65.142 28.5341 65.142C28.017 65.142 27.5469 65.2756 27.1236 65.5426C26.7003 65.8097 26.3636 66.2031 26.1136 66.723C25.8636 67.2429 25.7386 67.8807 25.7386 68.6364C25.7386 69.392 25.8651 70.0298 26.1179 70.5497C26.3707 71.0696 26.7131 71.4631 27.1449 71.7301C27.5767 71.9972 28.0625 72.1307 28.6023 72.1307C29.1023 72.1307 29.5426 72.0241 29.9233 71.8111C30.3068 71.5952 30.6051 71.2912 30.8182 70.8991C31.0341 70.5043 31.142 70.0398 31.142 69.5057L31.4659 69.5739H28.8409V68.6364H32.1648V69.5739C32.1648 70.2926 32.0114 70.9176 31.7045 71.4489C31.4006 71.9801 30.9801 72.392 30.4432 72.6847C29.9091 72.9744 29.2955 73.1193 28.6023 73.1193C27.8295 73.1193 27.1506 72.9375 26.5653 72.5739C25.983 72.2102 25.5284 71.6932 25.2017 71.0227C24.8778 70.3523 24.7159 69.5568 24.7159 68.6364C24.7159 67.946 24.8082 67.3253 24.9929 66.7741C25.1804 66.2202 25.4446 65.7486 25.7855 65.3594C26.1264 64.9702 26.5298 64.6719 26.9957 64.4645C27.4616 64.2571 27.9744 64.1534 28.5341 64.1534C28.9943 64.1534 29.4233 64.223 29.821 64.3622C30.2216 64.4986 30.5781 64.6932 30.8906 64.946C31.206 65.196 31.4688 65.4957 31.679 65.8452C31.8892 66.1918 32.0341 66.5767 32.1136 67H31.0227ZM36.4975 73.1364C35.9066 73.1364 35.3881 72.9957 34.9421 72.7145C34.4989 72.4332 34.1523 72.0398 33.9023 71.5341C33.6552 71.0284 33.5316 70.4375 33.5316 69.7614C33.5316 69.0795 33.6552 68.4844 33.9023 67.9759C34.1523 67.4673 34.4989 67.0724 34.9421 66.7912C35.3881 66.5099 35.9066 66.3693 36.4975 66.3693C37.0884 66.3693 37.6055 66.5099 38.0487 66.7912C38.4947 67.0724 38.8413 67.4673 39.0884 67.9759C39.3384 68.4844 39.4634 69.0795 39.4634 69.7614C39.4634 70.4375 39.3384 71.0284 39.0884 71.5341C38.8413 72.0398 38.4947 72.4332 38.0487 72.7145C37.6055 72.9957 37.0884 73.1364 36.4975 73.1364ZM36.4975 72.233C36.9464 72.233 37.3157 72.1179 37.6055 71.8878C37.8952 71.6577 38.1097 71.3551 38.2489 70.9801C38.3881 70.6051 38.4577 70.1989 38.4577 69.7614C38.4577 69.3239 38.3881 68.9162 38.2489 68.5384C38.1097 68.1605 37.8952 67.8551 37.6055 67.6222C37.3157 67.3892 36.9464 67.2727 36.4975 67.2727C36.0487 67.2727 35.6793 67.3892 35.3896 67.6222C35.0998 67.8551 34.8853 68.1605 34.7461 68.5384C34.6069 68.9162 34.5373 69.3239 34.5373 69.7614C34.5373 70.1989 34.6069 70.6051 34.7461 70.9801C34.8853 71.3551 35.0998 71.6577 35.3896 71.8878C35.6793 72.1179 36.0487 72.233 36.4975 72.233ZM43.6577 73.1364C43.0668 73.1364 42.5483 72.9957 42.1023 72.7145C41.6591 72.4332 41.3125 72.0398 41.0625 71.5341C40.8153 71.0284 40.6918 70.4375 40.6918 69.7614C40.6918 69.0795 40.8153 68.4844 41.0625 67.9759C41.3125 67.4673 41.6591 67.0724 42.1023 66.7912C42.5483 66.5099 43.0668 66.3693 43.6577 66.3693C44.2486 66.3693 44.7656 66.5099 45.2088 66.7912C45.6548 67.0724 46.0014 67.4673 46.2486 67.9759C46.4986 68.4844 46.6236 69.0795 46.6236 69.7614C46.6236 70.4375 46.4986 71.0284 46.2486 71.5341C46.0014 72.0398 45.6548 72.4332 45.2088 72.7145C44.7656 72.9957 44.2486 73.1364 43.6577 73.1364ZM43.6577 72.233C44.1065 72.233 44.4759 72.1179 44.7656 71.8878C45.0554 71.6577 45.2699 71.3551 45.4091 70.9801C45.5483 70.6051 45.6179 70.1989 45.6179 69.7614C45.6179 69.3239 45.5483 68.9162 45.4091 68.5384C45.2699 68.1605 45.0554 67.8551 44.7656 67.6222C44.4759 67.3892 44.1065 67.2727 43.6577 67.2727C43.2088 67.2727 42.8395 67.3892 42.5497 67.6222C42.2599 67.8551 42.0455 68.1605 41.9062 68.5384C41.767 68.9162 41.6974 69.3239 41.6974 69.7614C41.6974 70.1989 41.767 70.6051 41.9062 70.9801C42.0455 71.3551 42.2599 71.6577 42.5497 71.8878C42.8395 72.1179 43.2088 72.233 43.6577 72.233ZM50.8008 75.5909C50.315 75.5909 49.8974 75.5284 49.5479 75.4034C49.1985 75.2812 48.9073 75.1193 48.6744 74.9176C48.4442 74.7188 48.261 74.5057 48.1246 74.2784L48.9258 73.7159C49.0167 73.8352 49.1317 73.9716 49.271 74.125C49.4102 74.2812 49.6005 74.4162 49.842 74.5298C50.0863 74.6463 50.4059 74.7045 50.8008 74.7045C51.3292 74.7045 51.7653 74.5767 52.109 74.321C52.4528 74.0653 52.6246 73.6648 52.6246 73.1193V71.7898H52.5394C52.4656 71.9091 52.3604 72.0568 52.2241 72.233C52.0906 72.4062 51.8974 72.5611 51.6445 72.6974C51.3945 72.831 51.0565 72.8977 50.6303 72.8977C50.1019 72.8977 49.6275 72.7727 49.207 72.5227C48.7894 72.2727 48.4585 71.9091 48.2141 71.4318C47.9727 70.9545 47.8519 70.375 47.8519 69.6932C47.8519 69.0227 47.9698 68.4389 48.2056 67.9418C48.4414 67.4418 48.7695 67.0554 49.19 66.7827C49.6104 66.5071 50.0962 66.3693 50.6474 66.3693C51.0735 66.3693 51.4116 66.4403 51.6616 66.5824C51.9144 66.7216 52.1076 66.8807 52.2411 67.0597C52.3775 67.2358 52.4826 67.3807 52.5565 67.4943H52.6587V66.4545H53.6303V73.1875C53.6303 73.75 53.5025 74.2074 53.2468 74.5597C52.994 74.9148 52.6531 75.1747 52.2241 75.3395C51.7979 75.5071 51.3235 75.5909 50.8008 75.5909ZM50.7667 71.9943C51.1701 71.9943 51.511 71.902 51.7894 71.7173C52.0678 71.5327 52.2795 71.267 52.4244 70.9205C52.5692 70.5739 52.6417 70.1591 52.6417 69.6761C52.6417 69.2045 52.5707 68.7884 52.4286 68.4276C52.2866 68.0668 52.0763 67.7841 51.7979 67.5795C51.5195 67.375 51.1758 67.2727 50.7667 67.2727C50.3406 67.2727 49.9854 67.3807 49.7013 67.5966C49.4201 67.8125 49.2085 68.1023 49.0664 68.4659C48.9272 68.8295 48.8576 69.233 48.8576 69.6761C48.8576 70.1307 48.9286 70.5327 49.0707 70.8821C49.2156 71.2287 49.4286 71.5014 49.7099 71.7003C49.994 71.8963 50.3462 71.9943 50.7667 71.9943ZM56.4769 64.2727V73H55.4712V64.2727H56.4769ZM61.0632 73.1364C60.4325 73.1364 59.8885 72.9972 59.4311 72.7188C58.9766 72.4375 58.6257 72.0455 58.3786 71.5426C58.1342 71.0369 58.0121 70.4489 58.0121 69.7784C58.0121 69.108 58.1342 68.517 58.3786 68.0057C58.6257 67.4915 58.9695 67.0909 59.4098 66.804C59.853 66.5142 60.37 66.3693 60.9609 66.3693C61.3018 66.3693 61.6385 66.4261 61.9709 66.5398C62.3033 66.6534 62.6058 66.8381 62.8786 67.0938C63.1513 67.3466 63.3686 67.6818 63.5305 68.0994C63.6925 68.517 63.7734 69.0312 63.7734 69.642V70.0682H58.728V69.1989H62.7507C62.7507 68.8295 62.6768 68.5 62.5291 68.2102C62.3842 67.9205 62.1768 67.6918 61.907 67.5241C61.6399 67.3565 61.3246 67.2727 60.9609 67.2727C60.5604 67.2727 60.2138 67.3722 59.9212 67.571C59.6314 67.767 59.4084 68.0227 59.2521 68.3381C59.0959 68.6534 59.0178 68.9915 59.0178 69.3523V69.9318C59.0178 70.4261 59.103 70.8452 59.2734 71.1889C59.4467 71.5298 59.6868 71.7898 59.9936 71.9688C60.3004 72.1449 60.657 72.233 61.0632 72.233C61.3274 72.233 61.5661 72.196 61.7791 72.1222C61.995 72.0455 62.1811 71.9318 62.3374 71.7812C62.4936 71.6278 62.6143 71.4375 62.6996 71.2102L63.6712 71.483C63.5689 71.8125 63.397 72.1023 63.1555 72.3523C62.9141 72.5994 62.6158 72.7926 62.2607 72.9318C61.9055 73.0682 61.5064 73.1364 61.0632 73.1364Z" fill="#1C1C1C"/>
<path d="M24.3068 100.273H25.517L27.9375 104.347H28.0398L30.4602 100.273H31.6705L28.517 105.403V109H27.4602V105.403L24.3068 100.273ZM34.6342 109.136C34.0433 109.136 33.5249 108.996 33.0788 108.714C32.6357 108.433 32.2891 108.04 32.0391 107.534C31.7919 107.028 31.6683 106.437 31.6683 105.761C31.6683 105.08 31.7919 104.484 32.0391 103.976C32.2891 103.467 32.6357 103.072 33.0788 102.791C33.5249 102.51 34.0433 102.369 34.6342 102.369C35.2251 102.369 35.7422 102.51 36.1854 102.791C36.6314 103.072 36.978 103.467 37.2251 103.976C37.4751 104.484 37.6001 105.08 37.6001 105.761C37.6001 106.437 37.4751 107.028 37.2251 107.534C36.978 108.04 36.6314 108.433 36.1854 108.714C35.7422 108.996 35.2251 109.136 34.6342 109.136ZM34.6342 108.233C35.0831 108.233 35.4524 108.118 35.7422 107.888C36.032 107.658 36.2464 107.355 36.3857 106.98C36.5249 106.605 36.5945 106.199 36.5945 105.761C36.5945 105.324 36.5249 104.916 36.3857 104.538C36.2464 104.161 36.032 103.855 35.7422 103.622C35.4524 103.389 35.0831 103.273 34.6342 103.273C34.1854 103.273 33.8161 103.389 33.5263 103.622C33.2365 103.855 33.022 104.161 32.8828 104.538C32.7436 104.916 32.674 105.324 32.674 105.761C32.674 106.199 32.7436 106.605 32.8828 106.98C33.022 107.355 33.2365 107.658 33.5263 107.888C33.8161 108.118 34.1854 108.233 34.6342 108.233ZM43.2603 106.324V102.455H44.266V109H43.2603V107.892H43.1921C43.0387 108.224 42.8001 108.507 42.4762 108.74C42.1523 108.97 41.7433 109.085 41.2489 109.085C40.8398 109.085 40.4762 108.996 40.158 108.817C39.8398 108.635 39.5898 108.362 39.408 107.999C39.2262 107.632 39.1353 107.17 39.1353 106.614V102.455H40.141V106.545C40.141 107.023 40.2745 107.403 40.5415 107.688C40.8114 107.972 41.1552 108.114 41.5728 108.114C41.8228 108.114 42.0771 108.05 42.3356 107.922C42.5969 107.794 42.8157 107.598 42.9918 107.334C43.1708 107.07 43.2603 106.733 43.2603 106.324ZM46.108 109V102.455H47.0795V103.443H47.1477C47.267 103.119 47.483 102.857 47.7955 102.655C48.108 102.453 48.4602 102.352 48.8523 102.352C48.9261 102.352 49.0185 102.354 49.1293 102.357C49.2401 102.359 49.3239 102.364 49.3807 102.369V103.392C49.3466 103.384 49.2685 103.371 49.1463 103.354C49.027 103.334 48.9006 103.324 48.767 103.324C48.4489 103.324 48.1648 103.391 47.9148 103.524C47.6676 103.655 47.4716 103.837 47.3267 104.07C47.1847 104.3 47.1136 104.562 47.1136 104.858V109H46.108ZM53.8295 102.455V103.307H50.4375V102.455H53.8295ZM51.4261 100.886H52.4318V107.125C52.4318 107.409 52.473 107.622 52.5554 107.764C52.6406 107.903 52.7486 107.997 52.8793 108.045C53.0128 108.091 53.1534 108.114 53.3011 108.114C53.4119 108.114 53.5028 108.108 53.5739 108.097C53.6449 108.082 53.7017 108.071 53.7443 108.062L53.9489 108.966C53.8807 108.991 53.7855 109.017 53.6634 109.043C53.5412 109.071 53.3864 109.085 53.1989 109.085C52.9148 109.085 52.6364 109.024 52.3636 108.902C52.0938 108.78 51.8693 108.594 51.6903 108.344C51.5142 108.094 51.4261 107.778 51.4261 107.398V100.886ZM59.4673 106.324V102.455H60.473V109H59.4673V107.892H59.3991C59.2457 108.224 59.0071 108.507 58.6832 108.74C58.3594 108.97 57.9503 109.085 57.456 109.085C57.0469 109.085 56.6832 108.996 56.3651 108.817C56.0469 108.635 55.7969 108.362 55.6151 107.999C55.4332 107.632 55.3423 107.17 55.3423 106.614V102.455H56.348V106.545C56.348 107.023 56.4815 107.403 56.7486 107.688C57.0185 107.972 57.3622 108.114 57.7798 108.114C58.0298 108.114 58.2841 108.05 58.5426 107.922C58.804 107.794 59.0227 107.598 59.1989 107.334C59.3778 107.07 59.4673 106.733 59.4673 106.324ZM62.4513 109V100.273H63.457V103.494H63.5423C63.6161 103.381 63.7184 103.236 63.8491 103.06C63.9826 102.881 64.1729 102.722 64.4201 102.582C64.6701 102.44 65.0082 102.369 65.4343 102.369C65.9854 102.369 66.4712 102.507 66.8917 102.783C67.3121 103.058 67.6403 103.449 67.8761 103.955C68.1119 104.46 68.2298 105.057 68.2298 105.744C68.2298 106.438 68.1119 107.038 67.8761 107.547C67.6403 108.053 67.3136 108.445 66.896 108.723C66.4783 108.999 65.9968 109.136 65.4513 109.136C65.0309 109.136 64.6942 109.067 64.4414 108.928C64.1886 108.786 63.994 108.625 63.8576 108.446C63.7212 108.264 63.6161 108.114 63.5423 107.994H63.4229V109H62.4513ZM63.44 105.727C63.44 106.222 63.5124 106.658 63.6573 107.036C63.8022 107.411 64.0138 107.705 64.2923 107.918C64.5707 108.128 64.9116 108.233 65.315 108.233C65.7354 108.233 66.0863 108.122 66.3675 107.901C66.6516 107.676 66.8647 107.375 67.0067 106.997C67.1516 106.616 67.2241 106.193 67.2241 105.727C67.2241 105.267 67.1531 104.852 67.011 104.483C66.8718 104.111 66.6602 103.817 66.3761 103.601C66.0948 103.382 65.7411 103.273 65.315 103.273C64.9059 103.273 64.5621 103.376 64.2837 103.584C64.0053 103.788 63.7951 104.075 63.6531 104.445C63.511 104.811 63.44 105.239 63.44 105.727ZM72.5124 109.136C71.8817 109.136 71.3377 108.997 70.8803 108.719C70.4258 108.438 70.0749 108.045 69.8278 107.543C69.5835 107.037 69.4613 106.449 69.4613 105.778C69.4613 105.108 69.5835 104.517 69.8278 104.006C70.0749 103.491 70.4187 103.091 70.859 102.804C71.3022 102.514 71.8192 102.369 72.4102 102.369C72.7511 102.369 73.0877 102.426 73.4201 102.54C73.7525 102.653 74.055 102.838 74.3278 103.094C74.6005 103.347 74.8178 103.682 74.9798 104.099C75.1417 104.517 75.2227 105.031 75.2227 105.642V106.068H70.1772V105.199H74.1999C74.1999 104.83 74.1261 104.5 73.9783 104.21C73.8335 103.92 73.6261 103.692 73.3562 103.524C73.0891 103.357 72.7738 103.273 72.4102 103.273C72.0096 103.273 71.663 103.372 71.3704 103.571C71.0806 103.767 70.8576 104.023 70.7013 104.338C70.5451 104.653 70.467 104.991 70.467 105.352V105.932C70.467 106.426 70.5522 106.845 70.7227 107.189C70.896 107.53 71.136 107.79 71.4428 107.969C71.7496 108.145 72.1062 108.233 72.5124 108.233C72.7766 108.233 73.0153 108.196 73.2283 108.122C73.4442 108.045 73.6303 107.932 73.7866 107.781C73.9428 107.628 74.0636 107.437 74.1488 107.21L75.1204 107.483C75.0181 107.812 74.8462 108.102 74.6048 108.352C74.3633 108.599 74.065 108.793 73.7099 108.932C73.3548 109.068 72.9556 109.136 72.5124 109.136Z" fill="#1C1C1C"/>
<path d="M26.1136 136.273V145H25.0568V136.273H26.1136ZM29.1019 141.062V145H28.0962V138.455H29.0678V139.477H29.1531C29.3065 139.145 29.5394 138.878 29.8519 138.676C30.1644 138.472 30.5678 138.369 31.0621 138.369C31.5053 138.369 31.8931 138.46 32.2255 138.642C32.5579 138.821 32.8164 139.094 33.0011 139.46C33.1857 139.824 33.2781 140.284 33.2781 140.841V145H32.2724V140.909C32.2724 140.395 32.1388 139.994 31.8718 139.707C31.6048 139.418 31.2383 139.273 30.7724 139.273C30.4513 139.273 30.1644 139.342 29.9116 139.482C29.6616 139.621 29.4641 139.824 29.3192 140.091C29.1744 140.358 29.1019 140.682 29.1019 141.062ZM39.7521 139.92L38.8487 140.176C38.7919 140.026 38.7081 139.879 38.5973 139.737C38.4893 139.592 38.3416 139.473 38.1541 139.379C37.9666 139.286 37.7266 139.239 37.4339 139.239C37.0334 139.239 36.6996 139.331 36.4325 139.516C36.1683 139.697 36.0362 139.929 36.0362 140.21C36.0362 140.46 36.1271 140.658 36.3089 140.803C36.4908 140.947 36.7749 141.068 37.1612 141.165L38.1328 141.403C38.718 141.545 39.1541 141.763 39.4411 142.055C39.728 142.345 39.8714 142.719 39.8714 143.176C39.8714 143.551 39.7635 143.886 39.5476 144.182C39.3345 144.477 39.0362 144.71 38.6527 144.881C38.2692 145.051 37.8232 145.136 37.3146 145.136C36.647 145.136 36.0945 144.991 35.657 144.702C35.2195 144.412 34.9425 143.989 34.826 143.432L35.7805 143.193C35.8714 143.545 36.0433 143.81 36.2962 143.986C36.5518 144.162 36.8857 144.25 37.2976 144.25C37.7663 144.25 38.1385 144.151 38.4141 143.952C38.6925 143.75 38.8317 143.509 38.8317 143.227C38.8317 143 38.7521 142.81 38.593 142.656C38.4339 142.5 38.1896 142.384 37.8601 142.307L36.7692 142.051C36.1697 141.909 35.7294 141.689 35.4482 141.391C35.1697 141.089 35.0305 140.713 35.0305 140.261C35.0305 139.892 35.1342 139.565 35.3416 139.281C35.5518 138.997 35.8374 138.774 36.1982 138.612C36.5618 138.45 36.9737 138.369 37.4339 138.369C38.0817 138.369 38.5902 138.511 38.9595 138.795C39.3317 139.08 39.5959 139.455 39.7521 139.92ZM44.2319 138.455V139.307H40.8398V138.455H44.2319ZM41.8285 136.886H42.8342V143.125C42.8342 143.409 42.8754 143.622 42.9577 143.764C43.043 143.903 43.1509 143.997 43.2816 144.045C43.4151 144.091 43.5558 144.114 43.7035 144.114C43.8143 144.114 43.9052 144.108 43.9762 144.097C44.0472 144.082 44.104 144.071 44.1467 144.062L44.3512 144.966C44.283 144.991 44.1879 145.017 44.0657 145.043C43.9435 145.071 43.7887 145.085 43.6012 145.085C43.3171 145.085 43.0387 145.024 42.766 144.902C42.4961 144.78 42.2717 144.594 42.0927 144.344C41.9165 144.094 41.8285 143.778 41.8285 143.398V136.886ZM47.6708 145.153C47.256 145.153 46.8796 145.075 46.5415 144.919C46.2035 144.76 45.935 144.531 45.7362 144.233C45.5373 143.932 45.4379 143.568 45.4379 143.142C45.4379 142.767 45.5117 142.463 45.6594 142.23C45.8072 141.994 46.0046 141.81 46.2518 141.676C46.4989 141.543 46.7717 141.443 47.07 141.378C47.3711 141.31 47.6737 141.256 47.9776 141.216C48.3754 141.165 48.6978 141.126 48.945 141.101C49.195 141.072 49.3768 141.026 49.4904 140.96C49.6069 140.895 49.6651 140.781 49.6651 140.619V140.585C49.6651 140.165 49.5501 139.838 49.32 139.605C49.0927 139.372 48.7475 139.256 48.2844 139.256C47.8043 139.256 47.4279 139.361 47.1552 139.571C46.8825 139.781 46.6907 140.006 46.5799 140.244L45.6254 139.903C45.7958 139.506 46.0231 139.196 46.3072 138.974C46.5941 138.75 46.9066 138.594 47.2447 138.506C47.5856 138.415 47.9208 138.369 48.2504 138.369C48.4606 138.369 48.7021 138.395 48.9748 138.446C49.2504 138.494 49.516 138.595 49.7717 138.749C50.0302 138.902 50.2447 139.134 50.4151 139.443C50.5856 139.753 50.6708 140.168 50.6708 140.688V145H49.6651V144.114H49.614C49.5458 144.256 49.4322 144.408 49.2731 144.57C49.114 144.732 48.9023 144.869 48.6381 144.983C48.3739 145.097 48.0515 145.153 47.6708 145.153ZM47.8242 144.25C48.2219 144.25 48.5572 144.172 48.8299 144.016C49.1055 143.859 49.3129 143.658 49.4521 143.411C49.5941 143.163 49.6651 142.903 49.6651 142.631V141.71C49.6225 141.761 49.5288 141.808 49.3839 141.851C49.2418 141.891 49.0771 141.926 48.8896 141.957C48.7049 141.986 48.5245 142.011 48.3484 142.034C48.1751 142.054 48.0344 142.071 47.9265 142.085C47.6651 142.119 47.4208 142.175 47.1935 142.251C46.9691 142.325 46.7873 142.437 46.6481 142.588C46.5117 142.736 46.4435 142.937 46.4435 143.193C46.4435 143.543 46.5728 143.807 46.8313 143.986C47.0927 144.162 47.4237 144.25 47.8242 144.25ZM55.1484 147.591C54.6626 147.591 54.245 147.528 53.8956 147.403C53.5462 147.281 53.255 147.119 53.022 146.918C52.7919 146.719 52.6087 146.506 52.4723 146.278L53.2734 145.716C53.3643 145.835 53.4794 145.972 53.6186 146.125C53.7578 146.281 53.9482 146.416 54.1896 146.53C54.4339 146.646 54.7536 146.705 55.1484 146.705C55.6768 146.705 56.1129 146.577 56.4567 146.321C56.8004 146.065 56.9723 145.665 56.9723 145.119V143.79H56.8871C56.8132 143.909 56.7081 144.057 56.5717 144.233C56.4382 144.406 56.245 144.561 55.9922 144.697C55.7422 144.831 55.4041 144.898 54.978 144.898C54.4496 144.898 53.9751 144.773 53.5547 144.523C53.1371 144.273 52.8061 143.909 52.5618 143.432C52.3203 142.955 52.1996 142.375 52.1996 141.693C52.1996 141.023 52.3175 140.439 52.5533 139.942C52.7891 139.442 53.1172 139.055 53.5376 138.783C53.9581 138.507 54.4439 138.369 54.995 138.369C55.4212 138.369 55.7592 138.44 56.0092 138.582C56.2621 138.722 56.4553 138.881 56.5888 139.06C56.7251 139.236 56.8303 139.381 56.9041 139.494H57.0064V138.455H57.978V145.188C57.978 145.75 57.8501 146.207 57.5945 146.56C57.3416 146.915 57.0007 147.175 56.5717 147.339C56.1456 147.507 55.6712 147.591 55.1484 147.591ZM55.1143 143.994C55.5178 143.994 55.8587 143.902 56.1371 143.717C56.4155 143.533 56.6271 143.267 56.772 142.92C56.9169 142.574 56.9893 142.159 56.9893 141.676C56.9893 141.205 56.9183 140.788 56.7763 140.428C56.6342 140.067 56.424 139.784 56.1456 139.58C55.8672 139.375 55.5234 139.273 55.1143 139.273C54.6882 139.273 54.3331 139.381 54.049 139.597C53.7678 139.812 53.5561 140.102 53.4141 140.466C53.2749 140.83 53.2053 141.233 53.2053 141.676C53.2053 142.131 53.2763 142.533 53.4183 142.882C53.5632 143.229 53.7763 143.501 54.0575 143.7C54.3416 143.896 54.6939 143.994 55.1143 143.994ZM59.8189 145V138.455H60.7905V139.443H60.8587C60.978 139.119 61.1939 138.857 61.5064 138.655C61.8189 138.453 62.1712 138.352 62.5632 138.352C62.6371 138.352 62.7294 138.354 62.8402 138.357C62.951 138.359 63.0348 138.364 63.0916 138.369V139.392C63.0575 139.384 62.9794 139.371 62.8572 139.354C62.7379 139.334 62.6115 139.324 62.478 139.324C62.1598 139.324 61.8757 139.391 61.6257 139.524C61.3786 139.655 61.1825 139.837 61.0376 140.07C60.8956 140.3 60.8246 140.562 60.8246 140.858V145H59.8189ZM66.2099 145.153C65.7951 145.153 65.4187 145.075 65.0806 144.919C64.7425 144.76 64.4741 144.531 64.2752 144.233C64.0763 143.932 63.9769 143.568 63.9769 143.142C63.9769 142.767 64.0508 142.463 64.1985 142.23C64.3462 141.994 64.5437 141.81 64.7908 141.676C65.038 141.543 65.3107 141.443 65.609 141.378C65.9102 141.31 66.2127 141.256 66.5167 141.216C66.9144 141.165 67.2369 141.126 67.484 141.101C67.734 141.072 67.9158 141.026 68.0295 140.96C68.146 140.895 68.2042 140.781 68.2042 140.619V140.585C68.2042 140.165 68.0891 139.838 67.859 139.605C67.6317 139.372 67.2866 139.256 66.8235 139.256C66.3434 139.256 65.967 139.361 65.6942 139.571C65.4215 139.781 65.2298 140.006 65.119 140.244L64.1644 139.903C64.3349 139.506 64.5621 139.196 64.8462 138.974C65.1332 138.75 65.4457 138.594 65.7837 138.506C66.1246 138.415 66.4599 138.369 66.7894 138.369C66.9996 138.369 67.2411 138.395 67.5138 138.446C67.7894 138.494 68.055 138.595 68.3107 138.749C68.5692 138.902 68.7837 139.134 68.9542 139.443C69.1246 139.753 69.2099 140.168 69.2099 140.688V145H68.2042V144.114H68.1531C68.0849 144.256 67.9712 144.408 67.8121 144.57C67.6531 144.732 67.4414 144.869 67.1772 144.983C66.913 145.097 66.5906 145.153 66.2099 145.153ZM66.3633 144.25C66.761 144.25 67.0962 144.172 67.369 144.016C67.6445 143.859 67.8519 143.658 67.9911 143.411C68.1332 143.163 68.2042 142.903 68.2042 142.631V141.71C68.1616 141.761 68.0678 141.808 67.9229 141.851C67.7809 141.891 67.6161 141.926 67.4286 141.957C67.244 141.986 67.0636 142.011 66.8874 142.034C66.7141 142.054 66.5735 142.071 66.4656 142.085C66.2042 142.119 65.9599 142.175 65.7326 142.251C65.5082 142.325 65.3263 142.437 65.1871 142.588C65.0508 142.736 64.9826 142.937 64.9826 143.193C64.9826 143.543 65.1119 143.807 65.3704 143.986C65.6317 144.162 65.9627 144.25 66.3633 144.25ZM71.0455 145V138.455H72.017V139.477H72.1023C72.2386 139.128 72.4588 138.857 72.7628 138.663C73.0668 138.467 73.4318 138.369 73.858 138.369C74.2898 138.369 74.6491 138.467 74.9361 138.663C75.2259 138.857 75.4517 139.128 75.6136 139.477H75.6818C75.8494 139.139 76.1009 138.871 76.4361 138.672C76.7713 138.47 77.1733 138.369 77.642 138.369C78.2273 138.369 78.706 138.553 79.0781 138.919C79.4503 139.283 79.6364 139.849 79.6364 140.619V145H78.6307V140.619C78.6307 140.136 78.4986 139.791 78.2344 139.584C77.9702 139.376 77.6591 139.273 77.3011 139.273C76.8409 139.273 76.4844 139.412 76.2315 139.69C75.9787 139.966 75.8523 140.315 75.8523 140.739V145H74.8295V140.517C74.8295 140.145 74.7088 139.845 74.4673 139.618C74.2259 139.388 73.9148 139.273 73.5341 139.273C73.2727 139.273 73.0284 139.342 72.8011 139.482C72.5767 139.621 72.3949 139.814 72.2557 140.061C72.1193 140.305 72.0511 140.588 72.0511 140.909V145H71.0455Z" fill="#1C1C1C"/>
<path d="M25.0568 181V172.273H28.0057C28.6903 172.273 29.25 172.396 29.6847 172.643C30.1222 172.888 30.446 173.219 30.6562 173.636C30.8665 174.054 30.9716 174.52 30.9716 175.034C30.9716 175.548 30.8665 176.016 30.6562 176.436C30.4489 176.857 30.1278 177.192 29.6932 177.442C29.2585 177.689 28.7017 177.812 28.0227 177.812H25.9091V176.875H27.9886C28.4574 176.875 28.8338 176.794 29.1179 176.632C29.402 176.47 29.608 176.251 29.7358 175.976C29.8665 175.697 29.9318 175.384 29.9318 175.034C29.9318 174.685 29.8665 174.372 29.7358 174.097C29.608 173.821 29.4006 173.605 29.1136 173.449C28.8267 173.29 28.446 173.21 27.9716 173.21H26.1136V181H25.0568ZM32.5376 181V174.455H33.5433V181H32.5376ZM33.049 173.364C32.853 173.364 32.6839 173.297 32.5419 173.163C32.4027 173.03 32.3331 172.869 32.3331 172.682C32.3331 172.494 32.4027 172.334 32.5419 172.2C32.6839 172.067 32.853 172 33.049 172C33.245 172 33.4126 172.067 33.5518 172.2C33.6939 172.334 33.7649 172.494 33.7649 172.682C33.7649 172.869 33.6939 173.03 33.5518 173.163C33.4126 173.297 33.245 173.364 33.049 173.364ZM36.391 177.062V181H35.3853V174.455H36.3569V175.477H36.4421C36.5955 175.145 36.8285 174.878 37.141 174.676C37.4535 174.472 37.8569 174.369 38.3512 174.369C38.7944 174.369 39.1822 174.46 39.5146 174.642C39.8469 174.821 40.1055 175.094 40.2901 175.46C40.4748 175.824 40.5671 176.284 40.5671 176.841V181H39.5614V176.909C39.5614 176.395 39.4279 175.994 39.1609 175.707C38.8938 175.418 38.5273 175.273 38.0614 175.273C37.7404 175.273 37.4535 175.342 37.2006 175.482C36.9506 175.621 36.7532 175.824 36.6083 176.091C36.4634 176.358 36.391 176.682 36.391 177.062ZM45.2514 174.455V175.307H41.8594V174.455H45.2514ZM42.848 172.886H43.8537V179.125C43.8537 179.409 43.8949 179.622 43.9773 179.764C44.0625 179.903 44.1705 179.997 44.3011 180.045C44.4347 180.091 44.5753 180.114 44.723 180.114C44.8338 180.114 44.9247 180.108 44.9957 180.097C45.0668 180.082 45.1236 180.071 45.1662 180.062L45.3707 180.966C45.3026 180.991 45.2074 181.017 45.0852 181.043C44.9631 181.071 44.8082 181.085 44.6207 181.085C44.3366 181.085 44.0582 181.024 43.7855 180.902C43.5156 180.78 43.2912 180.594 43.1122 180.344C42.9361 180.094 42.848 179.778 42.848 179.398V172.886ZM49.4382 181.136C48.8075 181.136 48.2635 180.997 47.8061 180.719C47.3516 180.438 47.0007 180.045 46.7536 179.543C46.5092 179.037 46.3871 178.449 46.3871 177.778C46.3871 177.108 46.5092 176.517 46.7536 176.006C47.0007 175.491 47.3445 175.091 47.7848 174.804C48.228 174.514 48.745 174.369 49.3359 174.369C49.6768 174.369 50.0135 174.426 50.3459 174.54C50.6783 174.653 50.9808 174.838 51.2536 175.094C51.5263 175.347 51.7436 175.682 51.9055 176.099C52.0675 176.517 52.1484 177.031 52.1484 177.642V178.068H47.103V177.199H51.1257C51.1257 176.83 51.0518 176.5 50.9041 176.21C50.7592 175.92 50.5518 175.692 50.282 175.524C50.0149 175.357 49.6996 175.273 49.3359 175.273C48.9354 175.273 48.5888 175.372 48.2962 175.571C48.0064 175.767 47.7834 176.023 47.6271 176.338C47.4709 176.653 47.3928 176.991 47.3928 177.352V177.932C47.3928 178.426 47.478 178.845 47.6484 179.189C47.8217 179.53 48.0618 179.79 48.3686 179.969C48.6754 180.145 49.032 180.233 49.4382 180.233C49.7024 180.233 49.9411 180.196 50.1541 180.122C50.37 180.045 50.5561 179.932 50.7124 179.781C50.8686 179.628 50.9893 179.437 51.0746 179.21L52.0462 179.483C51.9439 179.812 51.772 180.102 51.5305 180.352C51.2891 180.599 50.9908 180.793 50.6357 180.932C50.2805 181.068 49.8814 181.136 49.4382 181.136ZM53.6783 181V174.455H54.6499V175.443H54.718C54.8374 175.119 55.0533 174.857 55.3658 174.655C55.6783 174.453 56.0305 174.352 56.4226 174.352C56.4964 174.352 56.5888 174.354 56.6996 174.357C56.8104 174.359 56.8942 174.364 56.951 174.369V175.392C56.9169 175.384 56.8388 175.371 56.7166 175.354C56.5973 175.334 56.4709 175.324 56.3374 175.324C56.0192 175.324 55.7351 175.391 55.4851 175.524C55.2379 175.655 55.0419 175.837 54.897 176.07C54.755 176.3 54.6839 176.562 54.6839 176.858V181H53.6783ZM60.6882 181.136C60.0575 181.136 59.5135 180.997 59.0561 180.719C58.6016 180.438 58.2507 180.045 58.0036 179.543C57.7592 179.037 57.6371 178.449 57.6371 177.778C57.6371 177.108 57.7592 176.517 58.0036 176.006C58.2507 175.491 58.5945 175.091 59.0348 174.804C59.478 174.514 59.995 174.369 60.5859 174.369C60.9268 174.369 61.2635 174.426 61.5959 174.54C61.9283 174.653 62.2308 174.838 62.5036 175.094C62.7763 175.347 62.9936 175.682 63.1555 176.099C63.3175 176.517 63.3984 177.031 63.3984 177.642V178.068H58.353V177.199H62.3757C62.3757 176.83 62.3018 176.5 62.1541 176.21C62.0092 175.92 61.8018 175.692 61.532 175.524C61.2649 175.357 60.9496 175.273 60.5859 175.273C60.1854 175.273 59.8388 175.372 59.5462 175.571C59.2564 175.767 59.0334 176.023 58.8771 176.338C58.7209 176.653 58.6428 176.991 58.6428 177.352V177.932C58.6428 178.426 58.728 178.845 58.8984 179.189C59.0717 179.53 59.3118 179.79 59.6186 179.969C59.9254 180.145 60.282 180.233 60.6882 180.233C60.9524 180.233 61.1911 180.196 61.4041 180.122C61.62 180.045 61.8061 179.932 61.9624 179.781C62.1186 179.628 62.2393 179.437 62.3246 179.21L63.2962 179.483C63.1939 179.812 63.022 180.102 62.7805 180.352C62.5391 180.599 62.2408 180.793 61.8857 180.932C61.5305 181.068 61.1314 181.136 60.6882 181.136ZM69.5646 175.92L68.6612 176.176C68.6044 176.026 68.5206 175.879 68.4098 175.737C68.3018 175.592 68.1541 175.473 67.9666 175.379C67.7791 175.286 67.5391 175.239 67.2464 175.239C66.8459 175.239 66.5121 175.331 66.245 175.516C65.9808 175.697 65.8487 175.929 65.8487 176.21C65.8487 176.46 65.9396 176.658 66.1214 176.803C66.3033 176.947 66.5874 177.068 66.9737 177.165L67.9453 177.403C68.5305 177.545 68.9666 177.763 69.2536 178.055C69.5405 178.345 69.6839 178.719 69.6839 179.176C69.6839 179.551 69.576 179.886 69.3601 180.182C69.147 180.477 68.8487 180.71 68.4652 180.881C68.0817 181.051 67.6357 181.136 67.1271 181.136C66.4595 181.136 65.907 180.991 65.4695 180.702C65.032 180.412 64.755 179.989 64.6385 179.432L65.593 179.193C65.6839 179.545 65.8558 179.81 66.1087 179.986C66.3643 180.162 66.6982 180.25 67.1101 180.25C67.5788 180.25 67.951 180.151 68.2266 179.952C68.505 179.75 68.6442 179.509 68.6442 179.227C68.6442 179 68.5646 178.81 68.4055 178.656C68.2464 178.5 68.0021 178.384 67.6726 178.307L66.5817 178.051C65.9822 177.909 65.5419 177.689 65.2607 177.391C64.9822 177.089 64.843 176.713 64.843 176.261C64.843 175.892 64.9467 175.565 65.1541 175.281C65.3643 174.997 65.6499 174.774 66.0107 174.612C66.3743 174.45 66.7862 174.369 67.2464 174.369C67.8942 174.369 68.4027 174.511 68.772 174.795C69.1442 175.08 69.4084 175.455 69.5646 175.92ZM74.0444 174.455V175.307H70.6523V174.455H74.0444ZM71.641 172.886H72.6467V179.125C72.6467 179.409 72.6879 179.622 72.7702 179.764C72.8555 179.903 72.9634 179.997 73.0941 180.045C73.2276 180.091 73.3683 180.114 73.516 180.114C73.6268 180.114 73.7177 180.108 73.7887 180.097C73.8597 180.082 73.9165 180.071 73.9592 180.062L74.1637 180.966C74.0955 180.991 74.0004 181.017 73.8782 181.043C73.756 181.071 73.6012 181.085 73.4137 181.085C73.1296 181.085 72.8512 181.024 72.5785 180.902C72.3086 180.78 72.0842 180.594 71.9052 180.344C71.729 180.094 71.641 179.778 71.641 179.398V172.886Z" fill="#1C1C1C"/>
<path d="M25.0568 217V208.273H30.2898V209.21H26.1136V212.159H29.8977V213.097H26.1136V217H25.0568ZM33.8896 217.153C33.4748 217.153 33.0984 217.075 32.7603 216.919C32.4222 216.76 32.1538 216.531 31.9549 216.233C31.756 215.932 31.6566 215.568 31.6566 215.142C31.6566 214.767 31.7305 214.463 31.8782 214.23C32.0259 213.994 32.2234 213.81 32.4705 213.676C32.7177 213.543 32.9904 213.443 33.2887 213.378C33.5898 213.31 33.8924 213.256 34.1964 213.216C34.5941 213.165 34.9165 213.126 35.1637 213.101C35.4137 213.072 35.5955 213.026 35.7092 212.96C35.8256 212.895 35.8839 212.781 35.8839 212.619V212.585C35.8839 212.165 35.7688 211.838 35.5387 211.605C35.3114 211.372 34.9663 211.256 34.5032 211.256C34.0231 211.256 33.6467 211.361 33.3739 211.571C33.1012 211.781 32.9094 212.006 32.7987 212.244L31.8441 211.903C32.0146 211.506 32.2418 211.196 32.5259 210.974C32.8129 210.75 33.1254 210.594 33.4634 210.506C33.8043 210.415 34.1396 210.369 34.4691 210.369C34.6793 210.369 34.9208 210.395 35.1935 210.446C35.4691 210.494 35.7347 210.595 35.9904 210.749C36.2489 210.902 36.4634 211.134 36.6339 211.443C36.8043 211.753 36.8896 212.168 36.8896 212.688V217H35.8839V216.114H35.8327C35.7646 216.256 35.6509 216.408 35.4918 216.57C35.3327 216.732 35.1211 216.869 34.8569 216.983C34.5927 217.097 34.2702 217.153 33.8896 217.153ZM34.043 216.25C34.4407 216.25 34.7759 216.172 35.0487 216.016C35.3242 215.859 35.5316 215.658 35.6708 215.411C35.8129 215.163 35.8839 214.903 35.8839 214.631V213.71C35.8413 213.761 35.7475 213.808 35.6026 213.851C35.4606 213.891 35.2958 213.926 35.1083 213.957C34.9237 213.986 34.7433 214.011 34.5671 214.034C34.3938 214.054 34.2532 214.071 34.1452 214.085C33.8839 214.119 33.6396 214.175 33.4123 214.251C33.1879 214.325 33.006 214.437 32.8668 214.588C32.7305 214.736 32.6623 214.937 32.6623 215.193C32.6623 215.543 32.7915 215.807 33.0501 215.986C33.3114 216.162 33.6424 216.25 34.043 216.25ZM41.3842 217.136C40.7706 217.136 40.2422 216.991 39.799 216.702C39.3558 216.412 39.0149 216.013 38.7763 215.504C38.5376 214.996 38.4183 214.415 38.4183 213.761C38.4183 213.097 38.5405 212.51 38.7848 212.001C39.032 211.49 39.3757 211.091 39.8161 210.804C40.2592 210.514 40.7763 210.369 41.3672 210.369C41.8274 210.369 42.2422 210.455 42.6115 210.625C42.9808 210.795 43.2834 211.034 43.5192 211.341C43.755 211.648 43.9013 212.006 43.9581 212.415H42.9524C42.8757 212.116 42.7053 211.852 42.4411 211.622C42.1797 211.389 41.8274 211.273 41.3842 211.273C40.9922 211.273 40.6484 211.375 40.353 211.58C40.0604 211.781 39.8317 212.067 39.6669 212.436C39.505 212.803 39.424 213.233 39.424 213.727C39.424 214.233 39.5036 214.673 39.6626 215.048C39.8246 215.423 40.0518 215.714 40.3445 215.922C40.6399 216.129 40.9865 216.233 41.3842 216.233C41.6456 216.233 41.8828 216.188 42.0959 216.097C42.3089 216.006 42.4893 215.875 42.6371 215.705C42.7848 215.534 42.8899 215.33 42.9524 215.091H43.9581C43.9013 215.477 43.7607 215.825 43.5362 216.135C43.3146 216.442 43.0206 216.686 42.6541 216.868C42.2905 217.047 41.8672 217.136 41.3842 217.136ZM48.1726 217.136C47.5419 217.136 46.9979 216.997 46.5405 216.719C46.0859 216.438 45.7351 216.045 45.4879 215.543C45.2436 215.037 45.1214 214.449 45.1214 213.778C45.1214 213.108 45.2436 212.517 45.4879 212.006C45.7351 211.491 46.0788 211.091 46.5192 210.804C46.9624 210.514 47.4794 210.369 48.0703 210.369C48.4112 210.369 48.7479 210.426 49.0803 210.54C49.4126 210.653 49.7152 210.838 49.9879 211.094C50.2607 211.347 50.478 211.682 50.6399 212.099C50.8018 212.517 50.8828 213.031 50.8828 213.642V214.068H45.8374V213.199H49.8601C49.8601 212.83 49.7862 212.5 49.6385 212.21C49.4936 211.92 49.2862 211.692 49.0163 211.524C48.7493 211.357 48.4339 211.273 48.0703 211.273C47.6697 211.273 47.3232 211.372 47.0305 211.571C46.7408 211.767 46.5178 212.023 46.3615 212.338C46.2053 212.653 46.1271 212.991 46.1271 213.352V213.932C46.1271 214.426 46.2124 214.845 46.3828 215.189C46.5561 215.53 46.7962 215.79 47.103 215.969C47.4098 216.145 47.7663 216.233 48.1726 216.233C48.4368 216.233 48.6754 216.196 48.8885 216.122C49.1044 216.045 49.2905 215.932 49.4467 215.781C49.603 215.628 49.7237 215.437 49.8089 215.21L50.7805 215.483C50.6783 215.812 50.5064 216.102 50.2649 216.352C50.0234 216.599 49.7251 216.793 49.37 216.932C49.0149 217.068 48.6158 217.136 48.1726 217.136ZM52.549 217V208.273H53.5547V211.494H53.6399C53.7138 211.381 53.8161 211.236 53.9467 211.06C54.0803 210.881 54.2706 210.722 54.5178 210.582C54.7678 210.44 55.1058 210.369 55.532 210.369C56.0831 210.369 56.5689 210.507 56.9893 210.783C57.4098 211.058 57.7379 211.449 57.9737 211.955C58.2095 212.46 58.3274 213.057 58.3274 213.744C58.3274 214.438 58.2095 215.038 57.9737 215.547C57.7379 216.053 57.4112 216.445 56.9936 216.723C56.576 216.999 56.0945 217.136 55.549 217.136C55.1286 217.136 54.7919 217.067 54.5391 216.928C54.2862 216.786 54.0916 216.625 53.9553 216.446C53.8189 216.264 53.7138 216.114 53.6399 215.994H53.5206V217H52.549ZM53.5376 213.727C53.5376 214.222 53.6101 214.658 53.755 215.036C53.8999 215.411 54.1115 215.705 54.3899 215.918C54.6683 216.128 55.0092 216.233 55.4126 216.233C55.8331 216.233 56.1839 216.122 56.4652 215.901C56.7493 215.676 56.9624 215.375 57.1044 214.997C57.2493 214.616 57.3217 214.193 57.3217 213.727C57.3217 213.267 57.2507 212.852 57.1087 212.483C56.9695 212.111 56.7578 211.817 56.4737 211.601C56.1925 211.382 55.8388 211.273 55.4126 211.273C55.0036 211.273 54.6598 211.376 54.3814 211.584C54.103 211.788 53.8928 212.075 53.7507 212.445C53.6087 212.811 53.5376 213.239 53.5376 213.727ZM62.5249 217.136C61.9339 217.136 61.4155 216.996 60.9695 216.714C60.5263 216.433 60.1797 216.04 59.9297 215.534C59.6825 215.028 59.5589 214.437 59.5589 213.761C59.5589 213.08 59.6825 212.484 59.9297 211.976C60.1797 211.467 60.5263 211.072 60.9695 210.791C61.4155 210.51 61.9339 210.369 62.5249 210.369C63.1158 210.369 63.6328 210.51 64.076 210.791C64.522 211.072 64.8686 211.467 65.1158 211.976C65.3658 212.484 65.4908 213.08 65.4908 213.761C65.4908 214.437 65.3658 215.028 65.1158 215.534C64.8686 216.04 64.522 216.433 64.076 216.714C63.6328 216.996 63.1158 217.136 62.5249 217.136ZM62.5249 216.233C62.9737 216.233 63.343 216.118 63.6328 215.888C63.9226 215.658 64.1371 215.355 64.2763 214.98C64.4155 214.605 64.4851 214.199 64.4851 213.761C64.4851 213.324 64.4155 212.916 64.2763 212.538C64.1371 212.161 63.9226 211.855 63.6328 211.622C63.343 211.389 62.9737 211.273 62.5249 211.273C62.076 211.273 61.7067 211.389 61.4169 211.622C61.1271 211.855 60.9126 212.161 60.7734 212.538C60.6342 212.916 60.5646 213.324 60.5646 213.761C60.5646 214.199 60.6342 214.605 60.7734 214.98C60.9126 215.355 61.1271 215.658 61.4169 215.888C61.7067 216.118 62.076 216.233 62.5249 216.233ZM69.685 217.136C69.0941 217.136 68.5756 216.996 68.1296 216.714C67.6864 216.433 67.3398 216.04 67.0898 215.534C66.8427 215.028 66.7191 214.437 66.7191 213.761C66.7191 213.08 66.8427 212.484 67.0898 211.976C67.3398 211.467 67.6864 211.072 68.1296 210.791C68.5756 210.51 69.0941 210.369 69.685 210.369C70.2759 210.369 70.793 210.51 71.2362 210.791C71.6822 211.072 72.0288 211.467 72.2759 211.976C72.5259 212.484 72.6509 213.08 72.6509 213.761C72.6509 214.437 72.5259 215.028 72.2759 215.534C72.0288 216.04 71.6822 216.433 71.2362 216.714C70.793 216.996 70.2759 217.136 69.685 217.136ZM69.685 216.233C70.1339 216.233 70.5032 216.118 70.793 215.888C71.0827 215.658 71.2972 215.355 71.4364 214.98C71.5756 214.605 71.6452 214.199 71.6452 213.761C71.6452 213.324 71.5756 212.916 71.4364 212.538C71.2972 212.161 71.0827 211.855 70.793 211.622C70.5032 211.389 70.1339 211.273 69.685 211.273C69.2362 211.273 68.8668 211.389 68.5771 211.622C68.2873 211.855 68.0728 212.161 67.9336 212.538C67.7944 212.916 67.7248 213.324 67.7248 213.761C67.7248 214.199 67.7944 214.605 67.9336 214.98C68.0728 215.355 68.2873 215.658 68.5771 215.888C68.8668 216.118 69.2362 216.233 69.685 216.233ZM75.1236 214.614L75.1065 213.369H75.3111L78.1747 210.455H79.419L76.3679 213.54H76.2827L75.1236 214.614ZM74.1861 217V208.273H75.1918V217H74.1861ZM78.3452 217L75.7884 213.761L76.5043 213.062L79.6236 217H78.3452Z" fill="#1C1C1C"/>
<path d="M24.5795 245.21V244.273H31.125V245.21H28.3807V253H27.3239V245.21H24.5795ZM33.3526 253L31.3583 246.455H32.4151L33.8299 251.466H33.8981L35.2958 246.455H36.3697L37.7504 251.449H37.8185L39.2333 246.455H40.2901L38.2958 253H37.3072L35.8754 247.972H35.7731L34.3413 253H33.3526ZM41.6197 253V246.455H42.6254V253H41.6197ZM42.131 245.364C41.935 245.364 41.766 245.297 41.6239 245.163C41.4847 245.03 41.4151 244.869 41.4151 244.682C41.4151 244.494 41.4847 244.334 41.6239 244.2C41.766 244.067 41.935 244 42.131 244C42.3271 244 42.4947 244.067 42.6339 244.2C42.7759 244.334 42.8469 244.494 42.8469 244.682C42.8469 244.869 42.7759 245.03 42.6339 245.163C42.4947 245.297 42.3271 245.364 42.131 245.364ZM47.3139 246.455V247.307H43.9219V246.455H47.3139ZM44.9105 244.886H45.9162V251.125C45.9162 251.409 45.9574 251.622 46.0398 251.764C46.125 251.903 46.233 251.997 46.3636 252.045C46.4972 252.091 46.6378 252.114 46.7855 252.114C46.8963 252.114 46.9872 252.108 47.0582 252.097C47.1293 252.082 47.1861 252.071 47.2287 252.062L47.4332 252.966C47.3651 252.991 47.2699 253.017 47.1477 253.043C47.0256 253.071 46.8707 253.085 46.6832 253.085C46.3991 253.085 46.1207 253.024 45.848 252.902C45.5781 252.78 45.3537 252.594 45.1747 252.344C44.9986 252.094 44.9105 251.778 44.9105 251.398V244.886ZM51.6733 246.455V247.307H48.2812V246.455H51.6733ZM49.2699 244.886H50.2756V251.125C50.2756 251.409 50.3168 251.622 50.3991 251.764C50.4844 251.903 50.5923 251.997 50.723 252.045C50.8565 252.091 50.9972 252.114 51.1449 252.114C51.2557 252.114 51.3466 252.108 51.4176 252.097C51.4886 252.082 51.5455 252.071 51.5881 252.062L51.7926 252.966C51.7244 252.991 51.6293 253.017 51.5071 253.043C51.3849 253.071 51.2301 253.085 51.0426 253.085C50.7585 253.085 50.4801 253.024 50.2074 252.902C49.9375 252.78 49.7131 252.594 49.5341 252.344C49.358 252.094 49.2699 251.778 49.2699 251.398V244.886ZM55.8601 253.136C55.2294 253.136 54.6854 252.997 54.228 252.719C53.7734 252.438 53.4226 252.045 53.1754 251.543C52.9311 251.037 52.8089 250.449 52.8089 249.778C52.8089 249.108 52.9311 248.517 53.1754 248.006C53.4226 247.491 53.7663 247.091 54.2067 246.804C54.6499 246.514 55.1669 246.369 55.7578 246.369C56.0987 246.369 56.4354 246.426 56.7678 246.54C57.1001 246.653 57.4027 246.838 57.6754 247.094C57.9482 247.347 58.1655 247.682 58.3274 248.099C58.4893 248.517 58.5703 249.031 58.5703 249.642V250.068H53.5249V249.199H57.5476C57.5476 248.83 57.4737 248.5 57.326 248.21C57.1811 247.92 56.9737 247.692 56.7038 247.524C56.4368 247.357 56.1214 247.273 55.7578 247.273C55.3572 247.273 55.0107 247.372 54.718 247.571C54.4283 247.767 54.2053 248.023 54.049 248.338C53.8928 248.653 53.8146 248.991 53.8146 249.352V249.932C53.8146 250.426 53.8999 250.845 54.0703 251.189C54.2436 251.53 54.4837 251.79 54.7905 251.969C55.0973 252.145 55.4538 252.233 55.8601 252.233C56.1243 252.233 56.3629 252.196 56.576 252.122C56.7919 252.045 56.978 251.932 57.1342 251.781C57.2905 251.628 57.4112 251.437 57.4964 251.21L58.468 251.483C58.3658 251.812 58.1939 252.102 57.9524 252.352C57.7109 252.599 57.4126 252.793 57.0575 252.932C56.7024 253.068 56.3033 253.136 55.8601 253.136ZM60.1001 253V246.455H61.0717V247.443H61.1399C61.2592 247.119 61.4751 246.857 61.7876 246.655C62.1001 246.453 62.4524 246.352 62.8445 246.352C62.9183 246.352 63.0107 246.354 63.1214 246.357C63.2322 246.359 63.3161 246.364 63.3729 246.369V247.392C63.3388 247.384 63.2607 247.371 63.1385 247.354C63.0192 247.334 62.8928 247.324 62.7592 247.324C62.4411 247.324 62.157 247.391 61.907 247.524C61.6598 247.655 61.4638 247.837 61.3189 248.07C61.1768 248.3 61.1058 248.562 61.1058 248.858V253H60.1001Z" fill="#1C1C1C"/>
<path d="M24.5795 281.21V280.273H31.125V281.21H28.3807V289H27.3239V281.21H24.5795ZM35.854 286.324V282.455H36.8597V289H35.854V287.892H35.7859C35.6325 288.224 35.3938 288.507 35.07 288.74C34.7461 288.97 34.337 289.085 33.8427 289.085C33.4336 289.085 33.07 288.996 32.7518 288.817C32.4336 288.635 32.1836 288.362 32.0018 287.999C31.82 287.632 31.729 287.17 31.729 286.614V282.455H32.7347V286.545C32.7347 287.023 32.8683 287.403 33.1353 287.688C33.4052 287.972 33.7489 288.114 34.1665 288.114C34.4165 288.114 34.6708 288.05 34.9293 287.922C35.1907 287.794 35.4094 287.598 35.5856 287.334C35.7646 287.07 35.854 286.733 35.854 286.324ZM38.7017 289V282.455H39.6733V283.477H39.7585C39.8949 283.128 40.1151 282.857 40.419 282.663C40.723 282.467 41.0881 282.369 41.5142 282.369C41.946 282.369 42.3054 282.467 42.5923 282.663C42.8821 282.857 43.108 283.128 43.2699 283.477H43.3381C43.5057 283.139 43.7571 282.871 44.0923 282.672C44.4276 282.47 44.8295 282.369 45.2983 282.369C45.8835 282.369 46.3622 282.553 46.7344 282.919C47.1065 283.283 47.2926 283.849 47.2926 284.619V289H46.2869V284.619C46.2869 284.136 46.1548 283.791 45.8906 283.584C45.6264 283.376 45.3153 283.273 44.9574 283.273C44.4972 283.273 44.1406 283.412 43.8878 283.69C43.6349 283.966 43.5085 284.315 43.5085 284.739V289H42.4858V284.517C42.4858 284.145 42.3651 283.845 42.1236 283.618C41.8821 283.388 41.571 283.273 41.1903 283.273C40.929 283.273 40.6847 283.342 40.4574 283.482C40.233 283.621 40.0511 283.814 39.9119 284.061C39.7756 284.305 39.7074 284.588 39.7074 284.909V289H38.7017ZM49.2678 289V280.273H50.2734V283.494H50.3587C50.4325 283.381 50.5348 283.236 50.6655 283.06C50.799 282.881 50.9893 282.722 51.2365 282.582C51.4865 282.44 51.8246 282.369 52.2507 282.369C52.8018 282.369 53.2876 282.507 53.7081 282.783C54.1286 283.058 54.4567 283.449 54.6925 283.955C54.9283 284.46 55.0462 285.057 55.0462 285.744C55.0462 286.438 54.9283 287.038 54.6925 287.547C54.4567 288.053 54.13 288.445 53.7124 288.723C53.2947 288.999 52.8132 289.136 52.2678 289.136C51.8473 289.136 51.5107 289.067 51.2578 288.928C51.005 288.786 50.8104 288.625 50.674 288.446C50.5376 288.264 50.4325 288.114 50.3587 287.994H50.2393V289H49.2678ZM50.2564 285.727C50.2564 286.222 50.3288 286.658 50.4737 287.036C50.6186 287.411 50.8303 287.705 51.1087 287.918C51.3871 288.128 51.728 288.233 52.1314 288.233C52.5518 288.233 52.9027 288.122 53.1839 287.901C53.468 287.676 53.6811 287.375 53.8232 286.997C53.968 286.616 54.0405 286.193 54.0405 285.727C54.0405 285.267 53.9695 284.852 53.8274 284.483C53.6882 284.111 53.4766 283.817 53.1925 283.601C52.9112 283.382 52.5575 283.273 52.1314 283.273C51.7223 283.273 51.3786 283.376 51.1001 283.584C50.8217 283.788 50.6115 284.075 50.4695 284.445C50.3274 284.811 50.2564 285.239 50.2564 285.727ZM57.5902 280.273V289H56.5845V280.273H57.5902ZM59.4322 289V282.455H60.4038V283.443H60.4719C60.5913 283.119 60.8072 282.857 61.1197 282.655C61.4322 282.453 61.7844 282.352 62.1765 282.352C62.2504 282.352 62.3427 282.354 62.4535 282.357C62.5643 282.359 62.6481 282.364 62.7049 282.369V283.392C62.6708 283.384 62.5927 283.371 62.4705 283.354C62.3512 283.334 62.2248 283.324 62.0913 283.324C61.7731 283.324 61.489 283.391 61.239 283.524C60.9918 283.655 60.7958 283.837 60.6509 284.07C60.5089 284.3 60.4379 284.562 60.4379 284.858V289H59.4322Z" fill="#1C1C1C"/>
<path d="M97 66H283C284.657 66 286 67.3431 286 69C286 70.6569 284.657 72 283 72H97V66Z" fill="black" fill-opacity="0.1"/>
<path d="M97 102H248C249.657 102 251 103.343 251 105C251 106.657 249.657 108 248 108H97V102Z" fill="black" fill-opacity="0.1"/>
<path d="M97.5 138.5H262C263.381 138.5 264.5 139.619 264.5 141C264.5 142.381 263.381 143.5 262 143.5H97.5V138.5Z" fill="#1C1C1C" stroke="#1C1C1C"/>
<path d="M97 174H238C239.657 174 241 175.343 241 177C241 178.657 239.657 180 238 180H97V174Z" fill="black" fill-opacity="0.1"/>
<path d="M97 210H268C269.657 210 271 211.343 271 213C271 214.657 269.657 216 268 216H97V210Z" fill="black" fill-opacity="0.1"/>
<path d="M97 246H244C245.657 246 247 247.343 247 249C247 250.657 245.657 252 244 252H97V246Z" fill="black" fill-opacity="0.1"/>
<path d="M97 282H262C263.657 282 265 283.343 265 285C265 286.657 263.657 288 262 288H97V282Z" fill="black" fill-opacity="0.1"/>
<line x1="97.5" y1="63" x2="97.5" y2="75" stroke="black" stroke-opacity="0.1"/>
<line x1="97.5" y1="99" x2="97.5" y2="111" stroke="black" stroke-opacity="0.1"/>
<line x1="97.5" y1="135" x2="97.5" y2="147" stroke="#1C1C1C"/>
<line x1="97.5" y1="171" x2="97.5" y2="183" stroke="black" stroke-opacity="0.1"/>
<line x1="97.5" y1="207" x2="97.5" y2="219" stroke="black" stroke-opacity="0.1"/>
<line x1="97.5" y1="243" x2="97.5" y2="255" stroke="black" stroke-opacity="0.1"/>
<line x1="97.5" y1="279" x2="97.5" y2="291" stroke="black" stroke-opacity="0.1"/>
</svg>
